<?xml version="1.0" encoding="utf-8" standalone="no"?>
<!DOCTYPE svg PUBLIC "-//W3C//DTD SVG 1.1//EN"
  "http://www.w3.org/Graphics/SVG/1.1/DTD/svg11.dtd">
<svg xmlns:xlink="http://www.w3.org/1999/xlink" width="432pt" height="432pt" viewBox="0 0 432 432" xmlns="http://www.w3.org/2000/svg" version="1.1">
 <metadata>
  <rdf:RDF xmlns:dc="http://purl.org/dc/elements/1.1/" xmlns:cc="http://creativecommons.org/ns#" xmlns:rdf="http://www.w3.org/1999/02/22-rdf-syntax-ns#">
   <cc:Work>
    <dc:type rdf:resource="http://purl.org/dc/dcmitype/StillImage"/>
    <dc:date>2026-08-21T07:15:14.971000</dc:date>
    <dc:format>image/svg+xml</dc:format>
    <dc:creator>
     <cc:Agent>
      <dc:title>Matplotlib v3.9.4, https://matplotlib.org/</dc:title>
     </cc:Agent>
    </dc:creator>
   </cc:Work>
  </rdf:RDF>
 </metadata>
 <defs>
  <style type="text/css">*{stroke-linejoin: round; stroke-linecap: butt}</style>
 </defs>
 <g id="figure_1">
  <g id="patch_1">
   <path d="M 0 432 
L 432 432 
L 432 0 
L 0 0 
z
" style="fill: #ffffff"/>
  </g>
  <g id="axes_1">
   <g id="patch_2">
    <path d="M 57.065673 392.488647 
L 377.382284 392.488647 
L 377.382284 25.10218 
L 57.065673 25.10218 
z
" style="fill: #ffffff"/>
   </g>
   <g id="patch_3">
    <path d="M 182.000289 298.510407 
C 203.802487 298.510407 224.714659 289.848302 240.131141 274.43182 
C 255.547623 259.015338 264.209728 238.103167 264.209728 216.300969 
C 264.209728 194.498771 255.547623 173.5866 240.131141 158.170118 
C 224.714659 142.753636 203.802487 134.091531 182.000289 134.091531 
C 160.198092 134.091531 139.28592 142.753636 123.869438 158.170118 
C 108.452956 173.5866 99.790851 194.498771 99.790851 216.300969 
C 99.790851 238.103167 108.452956 259.015338 123.869438 274.43182 
C 139.28592 289.848302 160.198092 298.510407 182.000289 298.510407 
z
" clip-path="url(#p10d2d57aa6)" style="fill: #fa8072"/>
   </g>
   <g id="patch_4">
    <path d="M 328.515777 107.05376 
L 328.515777 106.32301 
L 327.785026 106.32301 
L 327.785026 107.05376 
L 328.515777 107.05376 
z
" clip-path="url(#p10d2d57aa6)" style="fill: none; stroke: #1f77b4; stroke-width: 2; stroke-linejoin: miter"/>
   </g>
   <g id="patch_5">
    <path d="M 325.601072 114.191895 
L 325.601072 113.335457 
L 324.70511 113.335457 
L 324.70511 114.191895 
L 325.601072 114.191895 
z
" clip-path="url(#p10d2d57aa6)" style="fill: none; stroke: #1f77b4; stroke-width: 2; stroke-linejoin: miter"/>
   </g>
   <g id="patch_6">
    <path d="M 323.741972 122.700986 
L 323.741972 121.741286 
L 322.682014 121.741286 
L 322.682014 122.700986 
L 323.741972 122.700986 
z
" clip-path="url(#p10d2d57aa6)" style="fill: none; stroke: #1f77b4; stroke-width: 2; stroke-linejoin: miter"/>
   </g>
   <g id="patch_7">
    <path d="M 323.046541 132.576902 
L 323.046541 131.5384 
L 321.827354 131.5384 
L 321.827354 132.576902 
L 323.046541 132.576902 
z
" clip-path="url(#p10d2d57aa6)" style="fill: none; stroke: #1f77b4; stroke-width: 2; stroke-linejoin: miter"/>
   </g>
   <g id="patch_8">
    <path d="M 323.49926 143.817706 
L 323.49926 142.723652 
L 322.128709 142.723652 
L 322.128709 143.817706 
L 323.49926 143.817706 
z
" clip-path="url(#p10d2d57aa6)" style="fill: none; stroke: #1f77b4; stroke-width: 2; stroke-linejoin: miter"/>
   </g>
   <g id="patch_9">
    <path d="M 324.919193 156.433323 
L 324.919193 155.295736 
L 323.408 155.295736 
L 323.408 156.433323 
L 324.919193 156.433323 
z
" clip-path="url(#p10d2d57aa6)" style="fill: none; stroke: #1f77b4; stroke-width: 2; stroke-linejoin: miter"/>
   </g>
   <g id="patch_10">
    <path d="M 326.600463 170.42942 
L 326.600463 169.25205 
L 324.961373 169.25205 
L 324.961373 170.42942 
L 326.600463 170.42942 
z
" clip-path="url(#p10d2d57aa6)" style="fill: none; stroke: #1f77b4; stroke-width: 2; stroke-linejoin: miter"/>
   </g>
   <g id="patch_11">
    <path d="M 327.466705 185.737227 
L 327.466705 184.514759 
L 325.714464 184.514759 
L 325.714464 185.737227 
L 327.466705 185.737227 
z
" clip-path="url(#p10d2d57aa6)" style="fill: none; stroke: #1f77b4; stroke-width: 2; stroke-linejoin: miter"/>
   </g>
   <g id="patch_12">
    <path d="M 327.085463 202.1885 
L 327.085463 200.915888 
L 325.23893 200.915888 
L 325.23893 202.1885 
L 327.085463 202.1885 
z
" clip-path="url(#p10d2d57aa6)" style="fill: none; stroke: #1f77b4; stroke-width: 2; stroke-linejoin: miter"/>
   </g>
   <g id="patch_13">
    <path d="M 325.370139 219.628756 
L 325.370139 218.305118 
L 323.451536 218.305118 
L 323.451536 219.628756 
L 325.370139 219.628756 
z
" clip-path="url(#p10d2d57aa6)" style="fill: none; stroke: #1f77b4; stroke-width: 2; stroke-linejoin: miter"/>
   </g>
   <g id="patch_14">
    <path d="M 322.312597 237.909908 
L 322.312597 236.525869 
L 320.346403 236.525869 
L 320.346403 237.909908 
L 322.312597 237.909908 
z
" clip-path="url(#p10d2d57aa6)" style="fill: none; stroke: #1f77b4; stroke-width: 2; stroke-linejoin: miter"/>
   </g>
   <g id="patch_15">
    <path d="M 317.896573 256.531298 
L 317.896573 255.077329 
L 315.907979 255.077329 
L 315.907979 256.531298 
L 317.896573 256.531298 
z
" clip-path="url(#p10d2d57aa6)" style="fill: none; stroke: #1f77b4; stroke-width: 2; stroke-linejoin: miter"/>
   </g>
   <g id="patch_16">
    <path d="M 312.089159 274.020174 
L 312.089159 272.499359 
L 310.099902 272.499359 
L 310.099902 274.020174 
L 312.089159 274.020174 
z
" clip-path="url(#p10d2d57aa6)" style="fill: none; stroke: #1f77b4; stroke-width: 2; stroke-linejoin: miter"/>
   </g>
   <g id="patch_17">
    <path d="M 304.8939 290.118895 
L 304.8939 288.539334 
L 302.919153 288.539334 
L 302.919153 290.118895 
L 304.8939 290.118895 
z
" clip-path="url(#p10d2d57aa6)" style="fill: none; stroke: #1f77b4; stroke-width: 2; stroke-linejoin: miter"/>
   </g>
   <g id="patch_18">
    <path d="M 296.311909 304.827029 
L 296.311909 303.201602 
L 294.360695 303.201602 
L 294.360695 304.827029 
L 296.311909 304.827029 
z
" clip-path="url(#p10d2d57aa6)" style="fill: none; stroke: #1f77b4; stroke-width: 2; stroke-linejoin: miter"/>
   </g>
   <g id="patch_19">
    <path d="M 286.345854 318.144037 
L 286.345854 316.489762 
L 284.421771 316.489762 
L 284.421771 318.144037 
L 286.345854 318.144037 
z
" clip-path="url(#p10d2d57aa6)" style="fill: none; stroke: #1f77b4; stroke-width: 2; stroke-linejoin: miter"/>
   </g>
   <g id="patch_20">
    <path d="M 274.997183 330.069424 
L 274.997183 328.407205 
L 273.099865 328.407205 
L 273.099865 330.069424 
L 274.997183 330.069424 
z
" clip-path="url(#p10d2d57aa6)" style="fill: none; stroke: #1f77b4; stroke-width: 2; stroke-linejoin: miter"/>
   </g>
   <g id="patch_21">
    <path d="M 262.266283 340.602756 
L 262.266283 338.956719 
L 260.392586 338.956719 
L 260.392586 340.602756 
L 262.266283 340.602756 
z
" clip-path="url(#p10d2d57aa6)" style="fill: none; stroke: #1f77b4; stroke-width: 2; stroke-linejoin: miter"/>
   </g>
   <g id="patch_22">
    <path d="M 248.175567 349.743706 
L 248.175567 348.140244 
L 246.320717 348.140244 
L 246.320717 349.743706 
L 248.175567 349.743706 
z
" clip-path="url(#p10d2d57aa6)" style="fill: none; stroke: #1f77b4; stroke-width: 2; stroke-linejoin: miter"/>
   </g>
   <g id="patch_23">
    <path d="M 232.868687 357.532811 
L 232.868687 355.918408 
L 231.027265 355.918408 
L 231.027265 357.532811 
L 232.868687 357.532811 
z
" clip-path="url(#p10d2d57aa6)" style="fill: none; stroke: #1f77b4; stroke-width: 2; stroke-linejoin: miter"/>
   </g>
   <g id="patch_24">
    <path d="M 216.617666 363.954355 
L 216.617666 362.307707 
L 214.774301 362.307707 
L 214.774301 363.954355 
L 216.617666 363.954355 
z
" clip-path="url(#p10d2d57aa6)" style="fill: none; stroke: #1f77b4; stroke-width: 2; stroke-linejoin: miter"/>
   </g>
   <g id="patch_25">
    <path d="M 199.792964 368.991032 
L 199.792964 367.326558 
L 197.933613 367.326558 
L 197.933613 368.991032 
L 199.792964 368.991032 
z
" clip-path="url(#p10d2d57aa6)" style="fill: none; stroke: #1f77b4; stroke-width: 2; stroke-linejoin: miter"/>
   </g>
   <g id="patch_26">
    <path d="M 182.830818 372.642384 
L 182.830818 370.976934 
L 180.960732 370.976934 
L 180.960732 372.642384 
L 182.830818 372.642384 
z
" clip-path="url(#p10d2d57aa6)" style="fill: none; stroke: #1f77b4; stroke-width: 2; stroke-linejoin: miter"/>
   </g>
   <g id="patch_27">
    <path d="M 166.160042 374.907479 
L 166.160042 373.258599 
L 164.285061 373.258599 
L 164.285061 374.907479 
L 166.160042 374.907479 
z
" clip-path="url(#p10d2d57aa6)" style="fill: none; stroke: #1f77b4; stroke-width: 2; stroke-linejoin: miter"/>
   </g>
   <g id="patch_28">
    <path d="M 150.094228 375.789262 
L 150.094228 374.173636 
L 148.220988 374.173636 
L 148.220988 375.789262 
L 150.094228 375.789262 
z
" clip-path="url(#p10d2d57aa6)" style="fill: none; stroke: #1f77b4; stroke-width: 2; stroke-linejoin: miter"/>
   </g>
   <g id="patch_29">
    <path d="M 134.818503 375.289764 
L 134.818503 373.721996 
L 132.954496 373.721996 
L 132.954496 375.289764 
L 134.818503 375.289764 
z
" clip-path="url(#p10d2d57aa6)" style="fill: none; stroke: #1f77b4; stroke-width: 2; stroke-linejoin: miter"/>
   </g>
   <g id="patch_30">
    <path d="M 120.46075 373.43505 
L 120.46075 371.926845 
L 118.614207 371.926845 
L 118.614207 373.43505 
L 120.46075 373.43505 
z
" clip-path="url(#p10d2d57aa6)" style="fill: none; stroke: #1f77b4; stroke-width: 2; stroke-linejoin: miter"/>
   </g>
   <g id="patch_31">
    <path d="M 107.105712 370.328354 
L 107.105712 368.888571 
L 105.271147 368.888571 
L 105.271147 370.328354 
L 107.105712 370.328354 
z
" clip-path="url(#p10d2d57aa6)" style="fill: none; stroke: #1f77b4; stroke-width: 2; stroke-linejoin: miter"/>
   </g>
   <g id="patch_32">
    <path d="M 94.809229 366.213262 
L 94.809229 364.847914 
L 92.966828 364.847914 
L 92.966828 366.213262 
L 94.809229 366.213262 
z
" clip-path="url(#p10d2d57aa6)" style="fill: none; stroke: #1f77b4; stroke-width: 2; stroke-linejoin: miter"/>
   </g>
   <g id="patch_33">
    <path d="M 83.590807 361.542385 
L 83.590807 360.254643 
L 81.746279 360.254643 
L 81.746279 361.542385 
L 83.590807 361.542385 
z
" clip-path="url(#p10d2d57aa6)" style="fill: none; stroke: #1f77b4; stroke-width: 2; stroke-linejoin: miter"/>
   </g>
   <g id="patch_34">
    <path d="M 73.466516 356.709212 
L 73.466516 355.499012 
L 71.625519 355.499012 
L 71.625519 356.709212 
L 73.466516 356.709212 
z
" clip-path="url(#p10d2d57aa6)" style="fill: none; stroke: #1f77b4; stroke-width: 2; stroke-linejoin: miter"/>
   </g>
   <g id="patch_35">
    <path d="M 335.377109 94.149471 
L 335.377109 93.418721 
L 334.646359 93.418721 
L 334.646359 94.149471 
L 335.377109 94.149471 
z
" clip-path="url(#p10d2d57aa6)" style="fill: none; stroke: #2ca02c; stroke-width: 2; stroke-linejoin: miter"/>
   </g>
   <g id="patch_36">
    <path d="M 332.03802 100.678163 
L 332.03802 99.811689 
L 331.141728 99.811689 
L 331.141728 100.678163 
L 332.03802 100.678163 
z
" clip-path="url(#p10d2d57aa6)" style="fill: none; stroke: #2ca02c; stroke-width: 2; stroke-linejoin: miter"/>
   </g>
   <g id="patch_37">
    <path d="M 328.762728 107.272413 
L 328.762728 106.269116 
L 327.699111 106.269116 
L 327.699111 107.272413 
L 328.762728 107.272413 
z
" clip-path="url(#p10d2d57aa6)" style="fill: none; stroke: #2ca02c; stroke-width: 2; stroke-linejoin: miter"/>
   </g>
   <g id="patch_38">
    <path d="M 325.610453 114.001761 
L 325.610453 112.86194 
L 324.377804 112.86194 
L 324.377804 114.001761 
L 325.610453 114.001761 
z
" clip-path="url(#p10d2d57aa6)" style="fill: none; stroke: #2ca02c; stroke-width: 2; stroke-linejoin: miter"/>
   </g>
   <g id="patch_39">
    <path d="M 322.631424 120.932318 
L 322.631424 119.657616 
L 321.228281 119.657616 
L 321.228281 120.932318 
L 322.631424 120.932318 
z
" clip-path="url(#p10d2d57aa6)" style="fill: none; stroke: #2ca02c; stroke-width: 2; stroke-linejoin: miter"/>
   </g>
   <g id="patch_40">
    <path d="M 319.867547 128.124597 
L 319.867547 126.717919 
L 318.292926 126.717919 
L 318.292926 128.124597 
L 319.867547 128.124597 
z
" clip-path="url(#p10d2d57aa6)" style="fill: none; stroke: #2ca02c; stroke-width: 2; stroke-linejoin: miter"/>
   </g>
   <g id="patch_41">
    <path d="M 317.350243 135.630167 
L 317.350243 134.095737 
L 315.604346 134.095737 
L 315.604346 135.630167 
L 317.350243 135.630167 
z
" clip-path="url(#p10d2d57aa6)" style="fill: none; stroke: #2ca02c; stroke-width: 2; stroke-linejoin: miter"/>
   </g>
   <g id="patch_42">
    <path d="M 315.083137 143.483706 
L 315.083137 141.826771 
L 313.16822 141.826771 
L 313.16822 143.483706 
L 315.083137 143.483706 
z
" clip-path="url(#p10d2d57aa6)" style="fill: none; stroke: #2ca02c; stroke-width: 2; stroke-linejoin: miter"/>
   </g>
   <g id="patch_43">
    <path d="M 313.044631 151.708589 
L 313.044631 149.934838 
L 310.965264 149.934838 
L 310.965264 151.708589 
L 313.044631 151.708589 
z
" clip-path="url(#p10d2d57aa6)" style="fill: none; stroke: #2ca02c; stroke-width: 2; stroke-linejoin: miter"/>
   </g>
   <g id="patch_44">
    <path d="M 311.201079 160.32604 
L 311.201079 158.441197 
L 308.964131 158.441197 
L 308.964131 160.32604 
L 311.201079 160.32604 
z
" clip-path="url(#p10d2d57aa6)" style="fill: none; stroke: #2ca02c; stroke-width: 2; stroke-linejoin: miter"/>
   </g>
   <g id="patch_45">
    <path d="M 309.510521 169.358031 
L 309.510521 167.367687 
L 307.125289 167.367687 
L 307.125289 169.358031 
L 309.510521 169.358031 
z
" clip-path="url(#p10d2d57aa6)" style="fill: none; stroke: #2ca02c; stroke-width: 2; stroke-linejoin: miter"/>
   </g>
   <g id="patch_46">
    <path d="M 307.922956 178.822999 
L 307.922956 176.732266 
L 305.400706 176.732266 
L 305.400706 178.822999 
L 307.922956 178.822999 
z
" clip-path="url(#p10d2d57aa6)" style="fill: none; stroke: #2ca02c; stroke-width: 2; stroke-linejoin: miter"/>
   </g>
   <g id="patch_47">
    <path d="M 306.37348 188.707567 
L 306.37348 186.521027 
L 303.727798 186.521027 
L 303.727798 188.707567 
L 306.37348 188.707567 
z
" clip-path="url(#p10d2d57aa6)" style="fill: none; stroke: #2ca02c; stroke-width: 2; stroke-linejoin: miter"/>
   </g>
   <g id="patch_48">
    <path d="M 304.776071 198.966948 
L 304.776071 196.688579 
L 302.022703 196.688579 
L 302.022703 198.966948 
L 304.776071 198.966948 
z
" clip-path="url(#p10d2d57aa6)" style="fill: none; stroke: #2ca02c; stroke-width: 2; stroke-linejoin: miter"/>
   </g>
   <g id="patch_49">
    <path d="M 303.028378 209.556817 
L 303.028378 207.189968 
L 300.184188 207.189968 
L 300.184188 209.556817 
L 303.028378 209.556817 
z
" clip-path="url(#p10d2d57aa6)" style="fill: none; stroke: #2ca02c; stroke-width: 2; stroke-linejoin: miter"/>
   </g>
   <g id="patch_50">
    <path d="M 301.018259 220.434095 
L 301.018259 217.981023 
L 298.099153 217.981023 
L 298.099153 220.434095 
L 301.018259 220.434095 
z
" clip-path="url(#p10d2d57aa6)" style="fill: none; stroke: #2ca02c; stroke-width: 2; stroke-linejoin: miter"/>
   </g>
   <g id="patch_51">
    <path d="M 298.628524 231.554523 
L 298.628524 229.016627 
L 295.6487 229.016627 
L 295.6487 231.554523 
L 298.628524 231.554523 
z
" clip-path="url(#p10d2d57aa6)" style="fill: none; stroke: #2ca02c; stroke-width: 2; stroke-linejoin: miter"/>
   </g>
   <g id="patch_52">
    <path d="M 295.740745 242.86996 
L 295.740745 240.248944 
L 292.713178 240.248944 
L 292.713178 242.86996 
L 295.740745 242.86996 
z
" clip-path="url(#p10d2d57aa6)" style="fill: none; stroke: #2ca02c; stroke-width: 2; stroke-linejoin: miter"/>
   </g>
   <g id="patch_53">
    <path d="M 292.238821 254.326235 
L 292.238821 251.625031 
L 289.175428 251.625031 
L 289.175428 254.326235 
L 292.238821 254.326235 
z
" clip-path="url(#p10d2d57aa6)" style="fill: none; stroke: #2ca02c; stroke-width: 2; stroke-linejoin: miter"/>
   </g>
   <g id="patch_54">
    <path d="M 288.013258 265.85982 
L 288.013258 263.083171 
L 284.924636 263.083171 
L 284.924636 265.85982 
L 288.013258 265.85982 
z
" clip-path="url(#p10d2d57aa6)" style="fill: none; stroke: #2ca02c; stroke-width: 2; stroke-linejoin: miter"/>
   </g>
   <g id="patch_55">
    <path d="M 282.966338 277.395897 
L 282.966338 274.545342 
L 279.861745 274.545342 
L 279.861745 277.395897 
L 282.966338 277.395897 
z
" clip-path="url(#p10d2d57aa6)" style="fill: none; stroke: #2ca02c; stroke-width: 2; stroke-linejoin: miter"/>
   </g>
   <g id="patch_56">
    <path d="M 277.017165 288.84252 
L 277.017165 285.916191 
L 273.904709 285.916191 
L 273.904709 288.84252 
L 277.017165 288.84252 
z
" clip-path="url(#p10d2d57aa6)" style="fill: none; stroke: #2ca02c; stroke-width: 2; stroke-linejoin: miter"/>
   </g>
   <g id="patch_57">
    <path d="M 270.107683 300.082215 
L 270.107683 297.089474 
L 266.993853 297.089474 
L 266.993853 300.082215 
L 270.107683 300.082215 
z
" clip-path="url(#p10d2d57aa6)" style="fill: none; stroke: #2ca02c; stroke-width: 2; stroke-linejoin: miter"/>
   </g>
   <g id="patch_58">
    <path d="M 262.207594 310.9855 
L 262.207594 307.939183 
L 259.097315 307.939183 
L 259.097315 310.9855 
L 262.207594 310.9855 
z
" clip-path="url(#p10d2d57aa6)" style="fill: none; stroke: #2ca02c; stroke-width: 2; stroke-linejoin: miter"/>
   </g>
   <g id="patch_59">
    <path d="M 253.316115 321.413366 
L 253.316115 318.329889 
L 250.212576 318.329889 
L 250.212576 321.413366 
L 253.316115 321.413366 
z
" clip-path="url(#p10d2d57aa6)" style="fill: none; stroke: #2ca02c; stroke-width: 2; stroke-linejoin: miter"/>
   </g>
   <g id="patch_60">
    <path d="M 243.459528 331.225417 
L 243.459528 328.124174 
L 240.363866 328.124174 
L 240.363866 331.225417 
L 243.459528 331.225417 
z
" clip-path="url(#p10d2d57aa6)" style="fill: none; stroke: #2ca02c; stroke-width: 2; stroke-linejoin: miter"/>
   </g>
   <g id="patch_61">
    <path d="M 232.687288 340.285566 
L 232.687288 337.187828 
L 229.598285 337.187828 
L 229.598285 340.285566 
L 232.687288 340.285566 
z
" clip-path="url(#p10d2d57aa6)" style="fill: none; stroke: #2ca02c; stroke-width: 2; stroke-linejoin: miter"/>
   </g>
   <g id="patch_62">
    <path d="M 221.069652 348.466971 
L 221.069652 345.394381 
L 217.983583 345.394381 
L 217.983583 348.466971 
L 221.069652 348.466971 
z
" clip-path="url(#p10d2d57aa6)" style="fill: none; stroke: #2ca02c; stroke-width: 2; stroke-linejoin: miter"/>
   </g>
   <g id="patch_63">
    <path d="M 208.695982 355.65707 
L 208.695982 352.631509 
L 205.607882 352.631509 
L 205.607882 355.65707 
L 208.695982 355.65707 
z
" clip-path="url(#p10d2d57aa6)" style="fill: none; stroke: #2ca02c; stroke-width: 2; stroke-linejoin: miter"/>
   </g>
   <g id="patch_64">
    <path d="M 195.679914 361.767185 
L 195.679914 358.81134 
L 192.580065 358.81134 
L 192.580065 361.767185 
L 195.679914 361.767185 
z
" clip-path="url(#p10d2d57aa6)" style="fill: none; stroke: #2ca02c; stroke-width: 2; stroke-linejoin: miter"/>
   </g>
   <g id="patch_65">
    <path d="M 182.156597 366.769153 
L 182.156597 363.852505 
L 179.030285 363.852505 
L 179.030285 366.769153 
L 182.156597 366.769153 
z
" clip-path="url(#p10d2d57aa6)" style="fill: none; stroke: #2ca02c; stroke-width: 2; stroke-linejoin: miter"/>
   </g>
   <g id="patch_66">
    <path d="M 342.238441 81.245182 
L 342.238441 80.514432 
L 341.507691 80.514432 
L 341.507691 81.245182 
L 342.238441 81.245182 
z
" clip-path="url(#p10d2d57aa6)" style="fill: none; stroke: #9467bd; stroke-width: 2; stroke-linejoin: miter"/>
   </g>
   <g id="patch_67">
    <path d="M 338.890673 87.765365 
L 338.890673 86.898713 
L 337.994365 86.898713 
L 337.994365 87.765365 
L 338.890673 87.765365 
z
" clip-path="url(#p10d2d57aa6)" style="fill: none; stroke: #9467bd; stroke-width: 2; stroke-linejoin: miter"/>
   </g>
   <g id="patch_68">
    <path d="M 335.546326 94.288597 
L 335.546326 93.283609 
L 334.482479 93.283609 
L 334.482479 94.288597 
L 335.546326 94.288597 
z
" clip-path="url(#p10d2d57aa6)" style="fill: none; stroke: #9467bd; stroke-width: 2; stroke-linejoin: miter"/>
   </g>
   <g id="patch_69">
    <path d="M 332.212491 100.820336 
L 332.212491 99.674585 
L 330.978809 99.674585 
L 330.978809 100.820336 
L 332.212491 100.820336 
z
" clip-path="url(#p10d2d57aa6)" style="fill: none; stroke: #9467bd; stroke-width: 2; stroke-linejoin: miter"/>
   </g>
   <g id="patch_70">
    <path d="M 328.900378 107.369746 
L 328.900378 106.080838 
L 327.49418 106.080838 
L 327.49418 107.369746 
L 328.900378 107.369746 
z
" clip-path="url(#p10d2d57aa6)" style="fill: none; stroke: #9467bd; stroke-width: 2; stroke-linejoin: miter"/>
   </g>
   <g id="patch_71">
    <path d="M 325.624339 113.949255 
L 325.624339 112.514865 
L 324.042544 112.514865 
L 324.042544 113.949255 
L 325.624339 113.949255 
z
" clip-path="url(#p10d2d57aa6)" style="fill: none; stroke: #9467bd; stroke-width: 2; stroke-linejoin: miter"/>
   </g>
   <g id="patch_72">
    <path d="M 322.400812 120.573905 
L 322.400812 118.991901 
L 320.640108 118.991901 
L 320.640108 120.573905 
L 322.400812 120.573905 
z
" clip-path="url(#p10d2d57aa6)" style="fill: none; stroke: #9467bd; stroke-width: 2; stroke-linejoin: miter"/>
   </g>
   <g id="patch_73">
    <path d="M 319.24677 127.260266 
L 319.24677 125.528902 
L 317.303965 125.528902 
L 317.303965 127.260266 
L 319.24677 127.260266 
z
" clip-path="url(#p10d2d57aa6)" style="fill: none; stroke: #9467bd; stroke-width: 2; stroke-linejoin: miter"/>
   </g>
   <g id="patch_74">
    <path d="M 316.177848 134.025121 
L 316.177848 132.143175 
L 314.050193 132.143175 
L 314.050193 134.025121 
L 316.177848 134.025121 
z
" clip-path="url(#p10d2d57aa6)" style="fill: none; stroke: #9467bd; stroke-width: 2; stroke-linejoin: miter"/>
   </g>
   <g id="patch_75">
    <path d="M 313.207355 140.88478 
L 313.207355 138.851667 
L 310.892868 138.851667 
L 310.892868 140.88478 
L 313.207355 140.88478 
z
" clip-path="url(#p10d2d57aa6)" style="fill: none; stroke: #9467bd; stroke-width: 2; stroke-linejoin: miter"/>
   </g>
   <g id="patch_76">
    <path d="M 310.345933 147.8549 
L 310.345933 145.670776 
L 307.843729 145.670776 
L 307.843729 147.8549 
L 310.345933 147.8549 
z
" clip-path="url(#p10d2d57aa6)" style="fill: none; stroke: #9467bd; stroke-width: 2; stroke-linejoin: miter"/>
   </g>
   <g id="patch_77">
    <path d="M 307.601465 154.950502 
L 307.601465 152.616233 
L 304.911837 152.616233 
L 304.911837 154.950502 
L 307.601465 154.950502 
z
" clip-path="url(#p10d2d57aa6)" style="fill: none; stroke: #9467bd; stroke-width: 2; stroke-linejoin: miter"/>
   </g>
   <g id="patch_78">
    <path d="M 304.978553 162.185403 
L 304.978553 159.702737 
L 302.103466 159.702737 
L 302.103466 162.185403 
L 304.978553 162.185403 
z
" clip-path="url(#p10d2d57aa6)" style="fill: none; stroke: #9467bd; stroke-width: 2; stroke-linejoin: miter"/>
   </g>
   <g id="patch_79">
    <path d="M 302.477811 169.570865 
L 302.477811 166.942554 
L 299.421364 166.942554 
L 299.421364 169.570865 
L 302.477811 169.570865 
z
" clip-path="url(#p10d2d57aa6)" style="fill: none; stroke: #9467bd; stroke-width: 2; stroke-linejoin: miter"/>
   </g>
   <g id="patch_80">
    <path d="M 300.09496 177.115311 
L 300.09496 174.344998 
L 296.863453 174.344998 
L 296.863453 177.115311 
L 300.09496 177.115311 
z
" clip-path="url(#p10d2d57aa6)" style="fill: none; stroke: #9467bd; stroke-width: 2; stroke-linejoin: miter"/>
   </g>
   <g id="patch_81">
    <path d="M 297.820352 184.825004 
L 297.820352 181.916428 
L 294.421209 181.916428 
L 294.421209 184.825004 
L 297.820352 184.825004 
z
" clip-path="url(#p10d2d57aa6)" style="fill: none; stroke: #9467bd; stroke-width: 2; stroke-linejoin: miter"/>
   </g>
   <g id="patch_82">
    <path d="M 295.638209 192.704633 
L 295.638209 189.660544 
L 292.078742 189.660544 
L 292.078742 192.704633 
L 295.638209 192.704633 
z
" clip-path="url(#p10d2d57aa6)" style="fill: none; stroke: #9467bd; stroke-width: 2; stroke-linejoin: miter"/>
   </g>
   <g id="patch_83">
    <path d="M 293.525612 200.757416 
L 293.525612 197.57916 
L 289.812653 197.57916 
L 289.812653 200.757416 
L 293.525612 200.757416 
z
" clip-path="url(#p10d2d57aa6)" style="fill: none; stroke: #9467bd; stroke-width: 2; stroke-linejoin: miter"/>
   </g>
   <g id="patch_84">
    <path d="M 291.451526 208.984774 
L 291.451526 205.673229 
L 287.592424 205.673229 
L 287.592424 208.984774 
L 291.451526 208.984774 
z
" clip-path="url(#p10d2d57aa6)" style="fill: none; stroke: #9467bd; stroke-width: 2; stroke-linejoin: miter"/>
   </g>
   <g id="patch_85">
    <path d="M 289.377012 217.38677 
L 289.377012 213.942655 
L 285.380216 213.942655 
L 285.380216 217.38677 
L 289.377012 217.38677 
z
" clip-path="url(#p10d2d57aa6)" style="fill: none; stroke: #9467bd; stroke-width: 2; stroke-linejoin: miter"/>
   </g>
   <g id="patch_86">
    <path d="M 287.255631 225.961847 
L 287.255631 222.386138 
L 283.131144 222.386138 
L 283.131144 225.961847 
L 287.255631 225.961847 
z
" clip-path="url(#p10d2d57aa6)" style="fill: none; stroke: #9467bd; stroke-width: 2; stroke-linejoin: miter"/>
   </g>
   <g id="patch_87">
    <path d="M 285.034115 234.706173 
L 285.034115 231.000539 
L 280.793853 231.000539 
L 280.793853 234.706173 
L 285.034115 234.706173 
z
" clip-path="url(#p10d2d57aa6)" style="fill: none; stroke: #9467bd; stroke-width: 2; stroke-linejoin: miter"/>
   </g>
   <g id="patch_88">
    <path d="M 282.653656 243.612818 
L 282.653656 239.779638 
L 278.31094 239.779638 
L 278.31094 243.612818 
L 282.653656 243.612818 
z
" clip-path="url(#p10d2d57aa6)" style="fill: none; stroke: #9467bd; stroke-width: 2; stroke-linejoin: miter"/>
   </g>
   <g id="patch_89">
    <path d="M 280.051405 252.670628 
L 280.051405 248.712605 
L 275.619667 248.712605 
L 275.619667 252.670628 
L 280.051405 252.670628 
z
" clip-path="url(#p10d2d57aa6)" style="fill: none; stroke: #9467bd; stroke-width: 2; stroke-linejoin: miter"/>
   </g>
   <g id="patch_90">
    <path d="M 277.160679 261.862013 
L 277.160679 257.783321 
L 272.65438 257.783321 
L 272.65438 261.862013 
L 277.160679 261.862013 
z
" clip-path="url(#p10d2d57aa6)" style="fill: none; stroke: #9467bd; stroke-width: 2; stroke-linejoin: miter"/>
   </g>
   <g id="patch_91">
    <path d="M 273.912878 271.161823 
L 273.912878 266.968823 
L 269.347573 266.968823 
L 269.347573 271.161823 
L 273.912878 271.161823 
z
" clip-path="url(#p10d2d57aa6)" style="fill: none; stroke: #9467bd; stroke-width: 2; stroke-linejoin: miter"/>
   </g>
   <g id="patch_92">
    <path d="M 270.239846 280.536829 
L 270.239846 276.237586 
L 265.630705 276.237586 
L 265.630705 280.536829 
L 270.239846 280.536829 
z
" clip-path="url(#p10d2d57aa6)" style="fill: none; stroke: #9467bd; stroke-width: 2; stroke-linejoin: miter"/>
   </g>
   <g id="patch_93">
    <path d="M 266.076411 289.945946 
L 266.076411 285.547577 
L 261.435108 285.547577 
L 261.435108 289.945946 
L 266.076411 289.945946 
z
" clip-path="url(#p10d2d57aa6)" style="fill: none; stroke: #9467bd; stroke-width: 2; stroke-linejoin: miter"/>
   </g>
   <g id="patch_94">
    <path d="M 261.360582 299.341448 
L 261.360582 294.84399 
L 256.695655 294.84399 
L 256.695655 299.341448 
L 261.360582 299.341448 
z
" clip-path="url(#p10d2d57aa6)" style="fill: none; stroke: #9467bd; stroke-width: 2; stroke-linejoin: miter"/>
   </g>
   <g id="patch_95">
    <path d="M 256.034307 308.665466 
L 256.034307 304.062621 
L 251.354542 304.062621 
L 251.354542 308.665466 
L 256.034307 308.665466 
z
" clip-path="url(#p10d2d57aa6)" style="fill: none; stroke: #9467bd; stroke-width: 2; stroke-linejoin: miter"/>
   </g>
   <g id="patch_96">
    <path d="M 250.049108 317.840594 
L 250.049108 313.14039 
L 245.361064 313.14039 
L 245.361064 317.840594 
L 250.049108 317.840594 
z
" clip-path="url(#p10d2d57aa6)" style="fill: none; stroke: #9467bd; stroke-width: 2; stroke-linejoin: miter"/>
   </g>
   <g id="patch_97">
    <path d="M 349.099773 68.340893 
L 349.099773 67.610143 
L 348.369023 67.610143 
L 348.369023 68.340893 
L 349.099773 68.340893 
z
" clip-path="url(#p10d2d57aa6)" style="fill: none; stroke: #e377c2; stroke-width: 2; stroke-linejoin: miter"/>
   </g>
   <g id="patch_98">
    <path d="M 345.751886 74.86099 
L 345.751886 73.994336 
L 344.85558 73.994336 
L 344.85558 74.86099 
L 345.751886 74.86099 
z
" clip-path="url(#p10d2d57aa6)" style="fill: none; stroke: #e377c2; stroke-width: 2; stroke-linejoin: miter"/>
   </g>
   <g id="patch_99">
    <path d="M 342.405044 81.382359 
L 342.405044 80.377334 
L 341.341215 80.377334 
L 341.341215 81.382359 
L 342.405044 81.382359 
z
" clip-path="url(#p10d2d57aa6)" style="fill: none; stroke: #e377c2; stroke-width: 2; stroke-linejoin: miter"/>
   </g>
   <g id="patch_100">
    <path d="M 339.059789 87.905309 
L 339.059789 86.75932 
L 337.826143 86.75932 
L 337.826143 87.905309 
L 339.059789 87.905309 
z
" clip-path="url(#p10d2d57aa6)" style="fill: none; stroke: #e377c2; stroke-width: 2; stroke-linejoin: miter"/>
   </g>
   <g id="patch_101">
    <path d="M 335.717406 94.430634 
L 335.717406 93.140858 
L 334.311148 93.140858 
L 334.311148 94.430634 
L 335.717406 94.430634 
z
" clip-path="url(#p10d2d57aa6)" style="fill: none; stroke: #e377c2; stroke-width: 2; stroke-linejoin: miter"/>
   </g>
   <g id="patch_102">
    <path d="M 332.38019 100.959821 
L 332.38019 99.5231 
L 330.797852 99.5231 
L 330.797852 100.959821 
L 332.38019 100.959821 
z
" clip-path="url(#p10d2d57aa6)" style="fill: none; stroke: #e377c2; stroke-width: 2; stroke-linejoin: miter"/>
   </g>
   <g id="patch_103">
    <path d="M 329.051613 107.495196 
L 329.051613 105.907968 
L 327.288942 105.907968 
L 327.288942 107.495196 
L 329.051613 107.495196 
z
" clip-path="url(#p10d2d57aa6)" style="fill: none; stroke: #e377c2; stroke-width: 2; stroke-linejoin: miter"/>
   </g>
   <g id="patch_104">
    <path d="M 325.736369 114.040006 
L 325.736369 112.298297 
L 323.788326 112.298297 
L 323.788326 114.040006 
L 325.736369 114.040006 
z
" clip-path="url(#p10d2d57aa6)" style="fill: none; stroke: #e377c2; stroke-width: 2; stroke-linejoin: miter"/>
   </g>
   <g id="patch_105">
    <path d="M 322.440293 120.598417 
L 322.440293 118.697881 
L 320.301146 118.697881 
L 320.301146 120.598417 
L 322.440293 120.598417 
z
" clip-path="url(#p10d2d57aa6)" style="fill: none; stroke: #e377c2; stroke-width: 2; stroke-linejoin: miter"/>
   </g>
   <g id="patch_106">
    <path d="M 319.170152 127.175425 
L 319.170152 125.111442 
L 316.833663 125.111442 
L 316.833663 127.175425 
L 319.170152 127.175425 
z
" clip-path="url(#p10d2d57aa6)" style="fill: none; stroke: #e377c2; stroke-width: 2; stroke-linejoin: miter"/>
   </g>
   <g id="patch_107">
    <path d="M 315.933401 133.776738 
L 315.933401 131.544555 
L 313.393092 131.544555 
L 313.393092 133.776738 
L 315.933401 133.776738 
z
" clip-path="url(#p10d2d57aa6)" style="fill: none; stroke: #e377c2; stroke-width: 2; stroke-linejoin: miter"/>
   </g>
   <g id="patch_108">
    <path d="M 312.737958 140.408652 
L 312.737958 138.003529 
L 309.987369 138.003529 
L 309.987369 140.408652 
L 312.737958 140.408652 
z
" clip-path="url(#p10d2d57aa6)" style="fill: none; stroke: #e377c2; stroke-width: 2; stroke-linejoin: miter"/>
   </g>
   <g id="patch_109">
    <path d="M 309.59184 147.077839 
L 309.59184 144.495343 
L 306.625046 144.495343 
L 306.625046 147.077839 
L 309.59184 147.077839 
z
" clip-path="url(#p10d2d57aa6)" style="fill: none; stroke: #e377c2; stroke-width: 2; stroke-linejoin: miter"/>
   </g>
   <g id="patch_110">
    <path d="M 306.502849 153.791139 
L 306.502849 151.027487 
L 303.315067 151.027487 
L 303.315067 153.791139 
L 306.502849 153.791139 
z
" clip-path="url(#p10d2d57aa6)" style="fill: none; stroke: #e377c2; stroke-width: 2; stroke-linejoin: miter"/>
   </g>
   <g id="patch_111">
    <path d="M 303.478334 160.555363 
L 303.478334 157.607694 
L 300.066389 157.607694 
L 300.066389 160.555363 
L 303.478334 160.555363 
z
" clip-path="url(#p10d2d57aa6)" style="fill: none; stroke: #e377c2; stroke-width: 2; stroke-linejoin: miter"/>
   </g>
   <g id="patch_112">
    <path d="M 300.525189 167.377272 
L 300.525189 164.243478 
L 296.887257 164.243478 
L 296.887257 167.377272 
L 300.525189 167.377272 
z
" clip-path="url(#p10d2d57aa6)" style="fill: none; stroke: #e377c2; stroke-width: 2; stroke-linejoin: miter"/>
   </g>
   <g id="patch_113">
    <path d="M 297.650195 174.263968 
L 297.650195 170.941333 
L 293.78407 170.941333 
L 293.78407 174.263968 
L 297.650195 174.263968 
z
" clip-path="url(#p10d2d57aa6)" style="fill: none; stroke: #e377c2; stroke-width: 2; stroke-linejoin: miter"/>
   </g>
   <g id="patch_114">
    <path d="M 294.859643 181.22287 
L 294.859643 177.706405 
L 290.760906 177.706405 
L 290.760906 181.22287 
L 294.859643 181.22287 
z
" clip-path="url(#p10d2d57aa6)" style="fill: none; stroke: #e377c2; stroke-width: 2; stroke-linejoin: miter"/>
   </g>
   <g id="patch_115">
    <path d="M 292.156637 188.259612 
L 292.156637 184.544352 
L 287.821334 184.544352 
L 287.821334 188.259612 
L 292.156637 188.259612 
z
" clip-path="url(#p10d2d57aa6)" style="fill: none; stroke: #e377c2; stroke-width: 2; stroke-linejoin: miter"/>
   </g>
   <g id="patch_116">
    <path d="M 289.541525 195.378814 
L 289.541525 191.460434 
L 284.967089 191.460434 
L 284.967089 195.378814 
L 289.541525 195.378814 
z
" clip-path="url(#p10d2d57aa6)" style="fill: none; stroke: #e377c2; stroke-width: 2; stroke-linejoin: miter"/>
   </g>
   <g id="patch_117">
    <path d="M 287.011117 202.584108 
L 287.011117 198.459447 
L 282.197982 198.459447 
L 282.197982 202.584108 
L 287.011117 202.584108 
z
" clip-path="url(#p10d2d57aa6)" style="fill: none; stroke: #e377c2; stroke-width: 2; stroke-linejoin: miter"/>
   </g>
   <g id="patch_118">
    <path d="M 284.558744 209.878196 
L 284.558744 205.545694 
L 279.511029 205.545694 
L 279.511029 209.878196 
L 284.558744 209.878196 
z
" clip-path="url(#p10d2d57aa6)" style="fill: none; stroke: #e377c2; stroke-width: 2; stroke-linejoin: miter"/>
   </g>
   <g id="patch_119">
    <path d="M 282.174435 217.26326 
L 282.174435 212.722644 
L 276.899555 212.722644 
L 276.899555 217.26326 
L 282.174435 217.26326 
z
" clip-path="url(#p10d2d57aa6)" style="fill: none; stroke: #e377c2; stroke-width: 2; stroke-linejoin: miter"/>
   </g>
   <g id="patch_120">
    <path d="M 279.845459 224.741563 
L 279.845459 219.99238 
L 274.352037 219.99238 
L 274.352037 224.741563 
L 279.845459 224.741563 
z
" clip-path="url(#p10d2d57aa6)" style="fill: none; stroke: #e377c2; stroke-width: 2; stroke-linejoin: miter"/>
   </g>
   <g id="patch_121">
    <path d="M 277.554 232.313872 
L 277.554 227.357155 
L 271.853971 227.357155 
L 271.853971 232.313872 
L 277.554 232.313872 
z
" clip-path="url(#p10d2d57aa6)" style="fill: none; stroke: #e377c2; stroke-width: 2; stroke-linejoin: miter"/>
   </g>
   <g id="patch_122">
    <path d="M 275.278302 239.980399 
L 275.278302 234.818314 
L 269.386415 234.818314 
L 269.386415 239.980399 
L 275.278302 239.980399 
z
" clip-path="url(#p10d2d57aa6)" style="fill: none; stroke: #e377c2; stroke-width: 2; stroke-linejoin: miter"/>
   </g>
   <g id="patch_123">
    <path d="M 272.993344 247.741027 
L 272.993344 242.37578 
L 266.925171 242.37578 
L 266.925171 247.741027 
L 272.993344 247.741027 
z
" clip-path="url(#p10d2d57aa6)" style="fill: none; stroke: #e377c2; stroke-width: 2; stroke-linejoin: miter"/>
   </g>
   <g id="patch_124">
    <path d="M 270.670924 255.595487 
L 270.670924 250.027404 
L 264.440726 250.027404 
L 264.440726 255.595487 
L 270.670924 255.595487 
z
" clip-path="url(#p10d2d57aa6)" style="fill: none; stroke: #e377c2; stroke-width: 2; stroke-linejoin: miter"/>
   </g>
   <g id="patch_125">
    <path d="M 268.279491 263.542147 
L 268.279491 257.769488 
L 261.898635 257.769488 
L 261.898635 263.542147 
L 268.279491 263.542147 
z
" clip-path="url(#p10d2d57aa6)" style="fill: none; stroke: #e377c2; stroke-width: 2; stroke-linejoin: miter"/>
   </g>
   <g id="patch_126">
    <path d="M 265.781757 271.583175 
L 265.781757 265.590732 
L 259.262323 265.590732 
L 259.262323 271.583175 
L 265.781757 271.583175 
z
" clip-path="url(#p10d2d57aa6)" style="fill: none; stroke: #e377c2; stroke-width: 2; stroke-linejoin: miter"/>
   </g>
   <g id="patch_127">
    <path d="M 263.136252 279.711561 
L 263.136252 273.484112 
L 256.492219 273.484112 
L 256.492219 279.711561 
L 263.136252 279.711561 
z
" clip-path="url(#p10d2d57aa6)" style="fill: none; stroke: #e377c2; stroke-width: 2; stroke-linejoin: miter"/>
   </g>
   <g id="patch_128">
    <path d="M 355.961106 55.436604 
L 355.961106 54.705854 
L 355.230355 54.705854 
L 355.230355 55.436604 
L 355.961106 55.436604 
z
" clip-path="url(#p10d2d57aa6)" style="fill: none; stroke: #bcbd22; stroke-width: 2; stroke-linejoin: miter"/>
   </g>
   <g id="patch_129">
    <path d="M 352.613217 61.9567 
L 352.613217 61.090047 
L 351.716911 61.090047 
L 351.716911 61.9567 
L 352.613217 61.9567 
z
" clip-path="url(#p10d2d57aa6)" style="fill: none; stroke: #bcbd22; stroke-width: 2; stroke-linejoin: miter"/>
   </g>
   <g id="patch_130">
    <path d="M 349.266312 68.478031 
L 349.266312 67.473007 
L 348.202487 67.473007 
L 348.202487 68.478031 
L 349.266312 68.478031 
z
" clip-path="url(#p10d2d57aa6)" style="fill: none; stroke: #bcbd22; stroke-width: 2; stroke-linejoin: miter"/>
   </g>
   <g id="patch_131">
    <path d="M 345.920559 75.000665 
L 345.920559 73.85468 
L 344.686939 73.85468 
L 344.686939 75.000665 
L 345.920559 75.000665 
z
" clip-path="url(#p10d2d57aa6)" style="fill: none; stroke: #bcbd22; stroke-width: 2; stroke-linejoin: miter"/>
   </g>
   <g id="patch_132">
    <path d="M 342.576264 81.52476 
L 342.576264 80.234981 
L 341.170084 80.234981 
L 341.170084 81.52476 
L 342.576264 81.52476 
z
" clip-path="url(#p10d2d57aa6)" style="fill: none; stroke: #bcbd22; stroke-width: 2; stroke-linejoin: miter"/>
   </g>
   <g id="patch_133">
    <path d="M 339.233932 88.050599 
L 339.233932 86.61382 
L 337.651742 86.61382 
L 337.651742 88.050599 
L 339.233932 88.050599 
z
" clip-path="url(#p10d2d57aa6)" style="fill: none; stroke: #bcbd22; stroke-width: 2; stroke-linejoin: miter"/>
   </g>
   <g id="patch_134">
    <path d="M 335.894347 94.578645 
L 335.894347 92.991141 
L 334.131808 92.991141 
L 334.131808 94.578645 
L 335.894347 94.578645 
z
" clip-path="url(#p10d2d57aa6)" style="fill: none; stroke: #bcbd22; stroke-width: 2; stroke-linejoin: miter"/>
   </g>
   <g id="patch_135">
    <path d="M 332.558647 101.109588 
L 332.558647 99.366983 
L 330.610342 99.366983 
L 330.610342 101.109588 
L 332.558647 101.109588 
z
" clip-path="url(#p10d2d57aa6)" style="fill: none; stroke: #bcbd22; stroke-width: 2; stroke-linejoin: miter"/>
   </g>
   <g id="patch_136">
    <path d="M 329.228388 107.644391 
L 329.228388 105.741544 
L 327.087685 105.741544 
L 327.087685 107.644391 
L 329.228388 107.644391 
z
" clip-path="url(#p10d2d57aa6)" style="fill: none; stroke: #bcbd22; stroke-width: 2; stroke-linejoin: miter"/>
   </g>
   <g id="patch_137">
    <path d="M 325.905581 114.184325 
L 325.905581 112.115254 
L 323.564567 112.115254 
L 323.564567 114.184325 
L 325.905581 114.184325 
z
" clip-path="url(#p10d2d57aa6)" style="fill: none; stroke: #bcbd22; stroke-width: 2; stroke-linejoin: miter"/>
   </g>
   <g id="patch_138">
    <path d="M 322.592717 120.730992 
L 322.592717 118.488852 
L 320.042223 118.488852 
L 320.042223 120.730992 
L 322.592717 120.730992 
z
" clip-path="url(#p10d2d57aa6)" style="fill: none; stroke: #bcbd22; stroke-width: 2; stroke-linejoin: miter"/>
   </g>
   <g id="patch_139">
    <path d="M 319.292761 127.286331 
L 319.292761 124.863442 
L 316.522476 124.863442 
L 316.522476 127.286331 
L 319.292761 127.286331 
z
" clip-path="url(#p10d2d57aa6)" style="fill: none; stroke: #bcbd22; stroke-width: 2; stroke-linejoin: miter"/>
   </g>
   <g id="patch_140">
    <path d="M 316.009084 133.852587 
L 316.009084 131.240584 
L 313.007866 131.240584 
L 313.007866 133.852587 
L 316.009084 133.852587 
z
" clip-path="url(#p10d2d57aa6)" style="fill: none; stroke: #bcbd22; stroke-width: 2; stroke-linejoin: miter"/>
   </g>
   <g id="patch_141">
    <path d="M 312.745373 140.432264 
L 312.745373 137.622364 
L 309.50174 137.622364 
L 309.50174 140.432264 
L 312.745373 140.432264 
z
" clip-path="url(#p10d2d57aa6)" style="fill: none; stroke: #bcbd22; stroke-width: 2; stroke-linejoin: miter"/>
   </g>
   <g id="patch_142">
    <path d="M 309.505577 147.028087 
L 309.505577 144.01142 
L 306.00828 144.01142 
L 306.00828 147.028087 
L 309.505577 147.028087 
z
" clip-path="url(#p10d2d57aa6)" style="fill: none; stroke: #bcbd22; stroke-width: 2; stroke-linejoin: miter"/>
   </g>
   <g id="patch_143">
    <path d="M 306.293956 153.643042 
L 306.293956 150.410861 
L 302.532359 150.410861 
L 302.532359 153.643042 
L 306.293956 153.643042 
z
" clip-path="url(#p10d2d57aa6)" style="fill: none; stroke: #bcbd22; stroke-width: 2; stroke-linejoin: miter"/>
   </g>
   <g id="patch_144">
    <path d="M 303.11621 160.281189 
L 303.11621 156.823366 
L 299.078264 156.823366 
L 299.078264 160.281189 
L 303.11621 160.281189 
z
" clip-path="url(#p10d2d57aa6)" style="fill: none; stroke: #bcbd22; stroke-width: 2; stroke-linejoin: miter"/>
   </g>
   <g id="patch_145">
    <path d="M 299.980147 166.948319 
L 299.980147 163.250406 
L 295.648835 163.250406 
L 295.648835 166.948319 
L 299.980147 166.948319 
z
" clip-path="url(#p10d2d57aa6)" style="fill: none; stroke: #bcbd22; stroke-width: 2; stroke-linejoin: miter"/>
   </g>
   <g id="patch_146">
    <path d="M 296.891681 173.648736 
L 296.891681 169.695312 
L 292.249201 169.695312 
L 292.249201 173.648736 
L 296.891681 173.648736 
z
" clip-path="url(#p10d2d57aa6)" style="fill: none; stroke: #bcbd22; stroke-width: 2; stroke-linejoin: miter"/>
   </g>
   <g id="patch_147">
    <path d="M 293.855889 180.386415 
L 293.855889 176.161949 
L 288.885417 176.161949 
L 288.885417 180.386415 
L 293.855889 180.386415 
z
" clip-path="url(#p10d2d57aa6)" style="fill: none; stroke: #bcbd22; stroke-width: 2; stroke-linejoin: miter"/>
   </g>
   <g id="patch_148">
    <path d="M 290.876961 187.164936 
L 290.876961 182.654586 
L 285.564144 182.654586 
L 285.564144 187.164936 
L 290.876961 187.164936 
z
" clip-path="url(#p10d2d57aa6)" style="fill: none; stroke: #bcbd22; stroke-width: 2; stroke-linejoin: miter"/>
   </g>
   <g id="patch_149">
    <path d="M 287.95801 193.987336 
L 287.95801 189.177869 
L 282.29243 189.177869 
L 282.29243 193.987336 
L 287.95801 193.987336 
z
" clip-path="url(#p10d2d57aa6)" style="fill: none; stroke: #bcbd22; stroke-width: 2; stroke-linejoin: miter"/>
   </g>
   <g id="patch_150">
    <path d="M 285.102018 200.856992 
L 285.102018 195.73574 
L 279.076314 195.73574 
L 279.076314 200.856992 
L 285.102018 200.856992 
z
" clip-path="url(#p10d2d57aa6)" style="fill: none; stroke: #bcbd22; stroke-width: 2; stroke-linejoin: miter"/>
   </g>
   <g id="patch_151">
    <path d="M 282.311892 207.777613 
L 282.311892 202.331296 
L 275.920282 202.331296 
L 275.920282 207.777613 
L 282.311892 207.777613 
z
" clip-path="url(#p10d2d57aa6)" style="fill: none; stroke: #bcbd22; stroke-width: 2; stroke-linejoin: miter"/>
   </g>
   <g id="patch_152">
    <path d="M 279.587491 214.751031 
L 279.587491 208.968849 
L 272.829725 208.968849 
L 272.829725 214.751031 
L 279.587491 214.751031 
z
" clip-path="url(#p10d2d57aa6)" style="fill: none; stroke: #bcbd22; stroke-width: 2; stroke-linejoin: miter"/>
   </g>
   <g id="patch_153">
    <path d="M 276.927524 221.778808 
L 276.927524 215.652212 
L 269.80852 215.652212 
L 269.80852 221.778808 
L 276.927524 221.778808 
z
" clip-path="url(#p10d2d57aa6)" style="fill: none; stroke: #bcbd22; stroke-width: 2; stroke-linejoin: miter"/>
   </g>
   <g id="patch_154">
    <path d="M 274.32999 228.862519 
L 274.32999 222.384333 
L 266.85806 222.384333 
L 266.85806 228.862519 
L 274.32999 228.862519 
z
" clip-path="url(#p10d2d57aa6)" style="fill: none; stroke: #bcbd22; stroke-width: 2; stroke-linejoin: miter"/>
   </g>
   <g id="patch_155">
    <path d="M 271.792684 236.003999 
L 271.792684 229.167001 
L 263.976217 229.167001 
L 263.976217 236.003999 
L 271.792684 236.003999 
z
" clip-path="url(#p10d2d57aa6)" style="fill: none; stroke: #bcbd22; stroke-width: 2; stroke-linejoin: miter"/>
   </g>
   <g id="patch_156">
    <path d="M 269.313202 243.20581 
L 269.313202 236.000341 
L 261.156843 236.000341 
L 261.156843 243.20581 
L 269.313202 243.20581 
z
" clip-path="url(#p10d2d57aa6)" style="fill: none; stroke: #bcbd22; stroke-width: 2; stroke-linejoin: miter"/>
   </g>
   <g id="patch_157">
    <path d="M 266.89003 250.484974 
L 266.89003 242.869065 
L 258.388204 242.869065 
L 258.388204 250.484974 
L 266.89003 250.484974 
z
" clip-path="url(#p10d2d57aa6)" style="fill: none; stroke: #bcbd22; stroke-width: 2; stroke-linejoin: miter"/>
   </g>
   <g id="patch_158">
    <path d="M 264.521229 257.83499 
L 264.521229 249.780422 
L 255.653871 249.780422 
L 255.653871 257.83499 
L 264.521229 257.83499 
z
" clip-path="url(#p10d2d57aa6)" style="fill: none; stroke: #bcbd22; stroke-width: 2; stroke-linejoin: miter"/>
   </g>
   <g id="patch_159">
    <path d="M 362.822438 42.532315 
L 362.822438 41.801565 
L 362.091687 41.801565 
L 362.091687 42.532315 
L 362.822438 42.532315 
z
" clip-path="url(#p10d2d57aa6)" style="fill: none; stroke: #9edae5; stroke-width: 2; stroke-linejoin: miter"/>
   </g>
   <g id="patch_160">
    <path d="M 359.474549 49.052411 
L 359.474549 48.185758 
L 358.578244 48.185758 
L 358.578244 49.052411 
L 359.474549 49.052411 
z
" clip-path="url(#p10d2d57aa6)" style="fill: none; stroke: #9edae5; stroke-width: 2; stroke-linejoin: miter"/>
   </g>
   <g id="patch_161">
    <path d="M 356.127643 55.573741 
L 356.127643 54.568717 
L 355.063818 54.568717 
L 355.063818 55.573741 
L 356.127643 55.573741 
z
" clip-path="url(#p10d2d57aa6)" style="fill: none; stroke: #9edae5; stroke-width: 2; stroke-linejoin: miter"/>
   </g>
   <g id="patch_162">
    <path d="M 352.781873 62.096365 
L 352.781873 60.950382 
L 351.548256 60.950382 
L 351.548256 62.096365 
L 352.781873 62.096365 
z
" clip-path="url(#p10d2d57aa6)" style="fill: none; stroke: #9edae5; stroke-width: 2; stroke-linejoin: miter"/>
   </g>
   <g id="patch_163">
    <path d="M 349.437483 68.620405 
L 349.437483 67.330635 
L 348.031321 67.330635 
L 348.031321 68.620405 
L 349.437483 68.620405 
z
" clip-path="url(#p10d2d57aa6)" style="fill: none; stroke: #9edae5; stroke-width: 2; stroke-linejoin: miter"/>
   </g>
   <g id="patch_164">
    <path d="M 346.094818 75.146051 
L 346.094818 73.709296 
L 344.512686 73.709296 
L 344.512686 75.146051 
L 346.094818 75.146051 
z
" clip-path="url(#p10d2d57aa6)" style="fill: none; stroke: #9edae5; stroke-width: 2; stroke-linejoin: miter"/>
   </g>
   <g id="patch_165">
    <path d="M 342.754349 81.673579 
L 342.754349 80.086118 
L 340.991932 80.086118 
L 340.991932 81.673579 
L 342.754349 81.673579 
z
" clip-path="url(#p10d2d57aa6)" style="fill: none; stroke: #9edae5; stroke-width: 2; stroke-linejoin: miter"/>
   </g>
   <g id="patch_166">
    <path d="M 339.416697 88.203367 
L 339.416697 86.460791 
L 337.468558 86.460791 
L 337.468558 88.203367 
L 339.416697 88.203367 
z
" clip-path="url(#p10d2d57aa6)" style="fill: none; stroke: #9edae5; stroke-width: 2; stroke-linejoin: miter"/>
   </g>
   <g id="patch_167">
    <path d="M 336.082652 94.735911 
L 336.082652 92.832944 
L 333.941992 92.832944 
L 333.941992 94.735911 
L 336.082652 94.735911 
z
" clip-path="url(#p10d2d57aa6)" style="fill: none; stroke: #9edae5; stroke-width: 2; stroke-linejoin: miter"/>
   </g>
   <g id="patch_168">
    <path d="M 332.753199 101.27184 
L 332.753199 99.202167 
L 330.411635 99.202167 
L 330.411635 101.27184 
L 332.753199 101.27184 
z
" clip-path="url(#p10d2d57aa6)" style="fill: none; stroke: #9edae5; stroke-width: 2; stroke-linejoin: miter"/>
   </g>
   <g id="patch_169">
    <path d="M 329.429527 107.811928 
L 329.429527 105.568033 
L 326.876903 105.568033 
L 326.876903 107.811928 
L 329.429527 107.811928 
z
" clip-path="url(#p10d2d57aa6)" style="fill: none; stroke: #9edae5; stroke-width: 2; stroke-linejoin: miter"/>
   </g>
   <g id="patch_170">
    <path d="M 326.113033 114.3571 
L 326.113033 111.930138 
L 323.3373 111.930138 
L 323.3373 114.3571 
L 326.113033 114.3571 
z
" clip-path="url(#p10d2d57aa6)" style="fill: none; stroke: #9edae5; stroke-width: 2; stroke-linejoin: miter"/>
   </g>
   <g id="patch_171">
    <path d="M 322.805296 120.908418 
L 322.805296 118.288155 
L 319.792517 118.288155 
L 319.792517 120.908418 
L 322.805296 120.908418 
z
" clip-path="url(#p10d2d57aa6)" style="fill: none; stroke: #9edae5; stroke-width: 2; stroke-linejoin: miter"/>
   </g>
   <g id="patch_172">
    <path d="M 319.508028 127.467059 
L 319.508028 124.641909 
L 316.242559 124.641909 
L 316.242559 127.467059 
L 319.508028 127.467059 
z
" clip-path="url(#p10d2d57aa6)" style="fill: none; stroke: #9edae5; stroke-width: 2; stroke-linejoin: miter"/>
   </g>
   <g id="patch_173">
    <path d="M 316.223015 134.034275 
L 316.223015 130.991461 
L 312.687874 130.991461 
L 312.687874 134.034275 
L 316.223015 134.034275 
z
" clip-path="url(#p10d2d57aa6)" style="fill: none; stroke: #9edae5; stroke-width: 2; stroke-linejoin: miter"/>
   </g>
   <g id="patch_174">
    <path d="M 312.952109 140.611386 
L 312.952109 137.337151 
L 309.129429 137.337151 
L 309.129429 140.611386 
L 312.952109 140.611386 
z
" clip-path="url(#p10d2d57aa6)" style="fill: none; stroke: #9edae5; stroke-width: 2; stroke-linejoin: miter"/>
   </g>
   <g id="patch_175">
    <path d="M 309.698651 147.200787 
L 309.698651 143.678639 
L 305.567345 143.678639 
L 305.567345 147.200787 
L 309.698651 147.200787 
z
" clip-path="url(#p10d2d57aa6)" style="fill: none; stroke: #9edae5; stroke-width: 2; stroke-linejoin: miter"/>
   </g>
   <g id="patch_176">
    <path d="M 306.468824 153.807073 
L 306.468824 150.013799 
L 301.999583 150.013799 
L 301.999583 153.807073 
L 306.468824 153.807073 
z
" clip-path="url(#p10d2d57aa6)" style="fill: none; stroke: #9edae5; stroke-width: 2; stroke-linejoin: miter"/>
   </g>
   <g id="patch_177">
    <path d="M 303.266746 160.433227 
L 303.266746 156.342546 
L 298.426874 156.342546 
L 298.426874 160.433227 
L 303.266746 160.433227 
z
" clip-path="url(#p10d2d57aa6)" style="fill: none; stroke: #9edae5; stroke-width: 2; stroke-linejoin: miter"/>
   </g>
   <g id="patch_178">
    <path d="M 300.095943 167.082035 
L 300.095943 162.665431 
L 294.851247 162.665431 
L 294.851247 167.082035 
L 300.095943 167.082035 
z
" clip-path="url(#p10d2d57aa6)" style="fill: none; stroke: #9edae5; stroke-width: 2; stroke-linejoin: miter"/>
   </g>
   <g id="patch_179">
    <path d="M 296.959358 173.756049 
L 296.959358 168.983651 
L 291.27599 168.983651 
L 291.27599 173.756049 
L 296.959358 173.756049 
z
" clip-path="url(#p10d2d57aa6)" style="fill: none; stroke: #9edae5; stroke-width: 2; stroke-linejoin: miter"/>
   </g>
   <g id="patch_180">
    <path d="M 293.859237 180.457457 
L 293.859237 175.29916 
L 287.705719 175.29916 
L 287.705719 180.457457 
L 293.859237 180.457457 
z
" clip-path="url(#p10d2d57aa6)" style="fill: none; stroke: #9edae5; stroke-width: 2; stroke-linejoin: miter"/>
   </g>
   <g id="patch_181">
    <path d="M 290.799269 187.189878 
L 290.799269 181.612812 
L 284.144141 181.612812 
L 284.144141 187.189878 
L 290.799269 187.189878 
z
" clip-path="url(#p10d2d57aa6)" style="fill: none; stroke: #9edae5; stroke-width: 2; stroke-linejoin: miter"/>
   </g>
   <g id="patch_182">
    <path d="M 287.783442 193.957328 
L 287.783442 187.925341 
L 280.59509 187.925341 
L 280.59509 193.957328 
L 287.783442 193.957328 
z
" clip-path="url(#p10d2d57aa6)" style="fill: none; stroke: #9edae5; stroke-width: 2; stroke-linejoin: miter"/>
   </g>
   <g id="patch_183">
    <path d="M 284.812689 200.761664 
L 284.812689 194.239823 
L 277.065724 194.239823 
L 277.065724 200.761664 
L 284.812689 200.761664 
z
" clip-path="url(#p10d2d57aa6)" style="fill: none; stroke: #9edae5; stroke-width: 2; stroke-linejoin: miter"/>
   </g>
   <g id="patch_184">
    <path d="M 281.887481 207.604816 
L 281.887481 200.559354 
L 273.563751 200.559354 
L 273.563751 207.604816 
L 281.887481 207.604816 
z
" clip-path="url(#p10d2d57aa6)" style="fill: none; stroke: #9edae5; stroke-width: 2; stroke-linejoin: miter"/>
   </g>
   <g id="patch_185">
    <path d="M 279.007865 214.488242 
L 279.007865 206.887492 
L 270.097173 206.887492 
L 270.097173 214.488242 
L 279.007865 214.488242 
z
" clip-path="url(#p10d2d57aa6)" style="fill: none; stroke: #9edae5; stroke-width: 2; stroke-linejoin: miter"/>
   </g>
   <g id="patch_186">
    <path d="M 276.175582 221.413777 
L 276.175582 213.227288 
L 266.671914 213.227288 
L 266.671914 221.413777 
L 276.175582 221.413777 
z
" clip-path="url(#p10d2d57aa6)" style="fill: none; stroke: #9edae5; stroke-width: 2; stroke-linejoin: miter"/>
   </g>
   <g id="patch_187">
    <path d="M 273.397414 228.386043 
L 273.397414 219.578769 
L 263.288196 219.578769 
L 263.288196 228.386043 
L 273.397414 228.386043 
z
" clip-path="url(#p10d2d57aa6)" style="fill: none; stroke: #9edae5; stroke-width: 2; stroke-linejoin: miter"/>
   </g>
   <g id="patch_188">
    <path d="M 270.700801 235.441651 
L 270.700801 225.909621 
L 259.924612 225.909621 
L 259.924612 235.441651 
L 270.700801 235.441651 
z
" clip-path="url(#p10d2d57aa6)" style="fill: none; stroke: #9edae5; stroke-width: 2; stroke-linejoin: miter"/>
   </g>
   <g id="patch_189">
    <path d="M 268.077656 242.566263 
L 268.077656 232.238026 
L 256.593975 232.238026 
L 256.593975 242.566263 
L 268.077656 242.566263 
z
" clip-path="url(#p10d2d57aa6)" style="fill: none; stroke: #9edae5; stroke-width: 2; stroke-linejoin: miter"/>
   </g>
   <g id="matplotlib.axis_1">
    <g id="xtick_1">
     <g id="line2d_1">
      <defs>
       <path id="m5bf7d9fec0" d="M 0 0 
L 0 3.5 
" style="stroke: #000000; stroke-width: 0.8"/>
      </defs>
      <g>
       <use xlink:href="#m5bf7d9fec0" x="72.387705" y="392.488647" style="stroke: #000000; stroke-width: 0.8"/>
      </g>
     </g>
     <g id="text_1">
      <!-- $\mathdefault{1}$ -->
      <g transform="translate(69.897038 406.407145) scale(0.1 -0.1)">
       <defs>
        <path id="CMR17-31" d="M 1702 4058 
C 1702 4192 1696 4192 1606 4192 
C 1357 3916 979 3827 621 3827 
C 602 3827 570 3827 563 3808 
C 557 3795 557 3782 557 3648 
C 755 3648 1088 3686 1344 3839 
L 1344 461 
C 1344 236 1331 160 781 160 
L 589 160 
L 589 0 
C 896 0 1216 0 1523 0 
C 1830 0 2150 0 2458 0 
L 2458 160 
L 2266 160 
C 1715 160 1702 230 1702 458 
L 1702 4058 
z
" transform="scale(0.015625)"/>
       </defs>
       <use xlink:href="#CMR17-31" transform="scale(0.996264)"/>
      </g>
     </g>
    </g>
    <g id="xtick_2">
     <g id="line2d_2">
      <g>
       <use xlink:href="#m5bf7d9fec0" x="108.925233" y="392.488647" style="stroke: #000000; stroke-width: 0.8"/>
      </g>
     </g>
     <g id="text_2">
      <!-- $\mathdefault{2}$ -->
      <g transform="translate(106.434566 406.407145) scale(0.1 -0.1)">
       <defs>
        <path id="CMR17-32" d="M 2669 989 
L 2554 989 
C 2490 536 2438 459 2413 420 
C 2381 369 1920 369 1830 369 
L 602 369 
C 832 619 1280 1072 1824 1597 
C 2214 1967 2669 2402 2669 3035 
C 2669 3790 2067 4224 1395 4224 
C 691 4224 262 3604 262 3030 
C 262 2780 448 2748 525 2748 
C 589 2748 781 2787 781 3010 
C 781 3207 614 3264 525 3264 
C 486 3264 448 3258 422 3245 
C 544 3790 915 4058 1306 4058 
C 1862 4058 2227 3617 2227 3035 
C 2227 2479 1901 2000 1536 1584 
L 262 146 
L 262 0 
L 2515 0 
L 2669 989 
z
" transform="scale(0.015625)"/>
       </defs>
       <use xlink:href="#CMR17-32" transform="scale(0.996264)"/>
      </g>
     </g>
    </g>
    <g id="xtick_3">
     <g id="line2d_3">
      <g>
       <use xlink:href="#m5bf7d9fec0" x="145.462761" y="392.488647" style="stroke: #000000; stroke-width: 0.8"/>
      </g>
     </g>
     <g id="text_3">
      <!-- $\mathdefault{3}$ -->
      <g transform="translate(142.972094 406.407145) scale(0.1 -0.1)">
       <defs>
        <path id="CMR17-33" d="M 1414 2157 
C 1984 2157 2234 1662 2234 1090 
C 2234 320 1824 25 1453 25 
C 1114 25 563 194 390 693 
C 422 680 454 680 486 680 
C 640 680 755 782 755 948 
C 755 1133 614 1216 486 1216 
C 378 1216 211 1165 211 926 
C 211 335 787 -128 1466 -128 
C 2176 -128 2720 430 2720 1085 
C 2720 1707 2208 2157 1600 2227 
C 2086 2328 2554 2756 2554 3329 
C 2554 3820 2048 4179 1472 4179 
C 890 4179 378 3829 378 3329 
C 378 3110 544 3072 627 3072 
C 762 3072 877 3155 877 3321 
C 877 3486 762 3569 627 3569 
C 602 3569 570 3569 544 3557 
C 730 3959 1235 4032 1459 4032 
C 1683 4032 2106 3925 2106 3320 
C 2106 3143 2080 2828 1862 2550 
C 1670 2304 1453 2304 1242 2284 
C 1210 2284 1062 2269 1037 2269 
C 992 2263 966 2257 966 2208 
C 966 2163 973 2157 1101 2157 
L 1414 2157 
z
" transform="scale(0.015625)"/>
       </defs>
       <use xlink:href="#CMR17-33" transform="scale(0.996264)"/>
      </g>
     </g>
    </g>
    <g id="xtick_4">
     <g id="line2d_4">
      <g>
       <use xlink:href="#m5bf7d9fec0" x="182.000289" y="392.488647" style="stroke: #000000; stroke-width: 0.8"/>
      </g>
     </g>
     <g id="text_4">
      <!-- $\mathdefault{4}$ -->
      <g transform="translate(179.509622 406.407145) scale(0.1 -0.1)">
       <defs>
        <path id="CMR17-34" d="M 2150 4122 
C 2150 4256 2144 4256 2029 4256 
L 128 1254 
L 128 1088 
L 1779 1088 
L 1779 457 
C 1779 224 1766 160 1318 160 
L 1197 160 
L 1197 0 
C 1402 0 1747 0 1965 0 
C 2182 0 2528 0 2733 0 
L 2733 160 
L 2611 160 
C 2163 160 2150 224 2150 457 
L 2150 1088 
L 2803 1088 
L 2803 1254 
L 2150 1254 
L 2150 4122 
z
M 1798 3703 
L 1798 1254 
L 256 1254 
L 1798 3703 
z
" transform="scale(0.015625)"/>
       </defs>
       <use xlink:href="#CMR17-34" transform="scale(0.996264)"/>
      </g>
     </g>
    </g>
    <g id="xtick_5">
     <g id="line2d_5">
      <g>
       <use xlink:href="#m5bf7d9fec0" x="218.537817" y="392.488647" style="stroke: #000000; stroke-width: 0.8"/>
      </g>
     </g>
     <g id="text_5">
      <!-- $\mathdefault{5}$ -->
      <g transform="translate(216.04715 406.407145) scale(0.1 -0.1)">
       <defs>
        <path id="CMR17-35" d="M 730 3692 
C 794 3666 1056 3584 1325 3584 
C 1920 3584 2246 3911 2432 4100 
C 2432 4157 2432 4192 2394 4192 
C 2387 4192 2374 4192 2323 4163 
C 2099 4058 1837 3973 1517 3973 
C 1325 3973 1037 3999 723 4139 
C 653 4171 640 4171 634 4171 
C 602 4171 595 4164 595 4037 
L 595 2203 
C 595 2089 595 2057 659 2057 
C 691 2057 704 2070 736 2114 
C 941 2401 1222 2522 1542 2522 
C 1766 2522 2246 2382 2246 1289 
C 2246 1085 2246 715 2054 421 
C 1894 159 1645 25 1370 25 
C 947 25 518 320 403 814 
C 429 807 480 795 506 795 
C 589 795 749 840 749 1038 
C 749 1210 627 1280 506 1280 
C 358 1280 262 1190 262 1011 
C 262 454 704 -128 1382 -128 
C 2042 -128 2669 440 2669 1264 
C 2669 2030 2170 2624 1549 2624 
C 1222 2624 947 2503 730 2274 
L 730 3692 
z
" transform="scale(0.015625)"/>
       </defs>
       <use xlink:href="#CMR17-35" transform="scale(0.996264)"/>
      </g>
     </g>
    </g>
    <g id="xtick_6">
     <g id="line2d_6">
      <g>
       <use xlink:href="#m5bf7d9fec0" x="255.075346" y="392.488647" style="stroke: #000000; stroke-width: 0.8"/>
      </g>
     </g>
     <g id="text_6">
      <!-- $\mathdefault{6}$ -->
      <g transform="translate(252.584678 406.407145) scale(0.1 -0.1)">
       <defs>
        <path id="CMR17-36" d="M 678 2176 
C 678 3690 1395 4032 1811 4032 
C 1946 4032 2272 4009 2400 3776 
C 2298 3776 2106 3776 2106 3553 
C 2106 3381 2246 3323 2336 3323 
C 2394 3323 2566 3348 2566 3560 
C 2566 3954 2246 4179 1805 4179 
C 1043 4179 243 3390 243 1984 
C 243 253 966 -128 1478 -128 
C 2099 -128 2688 427 2688 1283 
C 2688 2081 2170 2662 1517 2662 
C 1126 2662 838 2407 678 1960 
L 678 2176 
z
M 1478 25 
C 691 25 691 1200 691 1436 
C 691 1896 909 2560 1504 2560 
C 1613 2560 1926 2560 2138 2120 
C 2253 1870 2253 1609 2253 1289 
C 2253 944 2253 690 2118 434 
C 1978 171 1773 25 1478 25 
z
" transform="scale(0.015625)"/>
       </defs>
       <use xlink:href="#CMR17-36" transform="scale(0.996264)"/>
      </g>
     </g>
    </g>
    <g id="xtick_7">
     <g id="line2d_7">
      <g>
       <use xlink:href="#m5bf7d9fec0" x="291.612874" y="392.488647" style="stroke: #000000; stroke-width: 0.8"/>
      </g>
     </g>
     <g id="text_7">
      <!-- $\mathdefault{7}$ -->
      <g transform="translate(289.122206 406.407145) scale(0.1 -0.1)">
       <defs>
        <path id="CMR17-37" d="M 2886 3941 
L 2886 4081 
L 1382 4081 
C 634 4081 621 4165 595 4288 
L 480 4288 
L 294 3094 
L 410 3094 
C 429 3215 474 3540 550 3661 
C 589 3712 1062 3712 1171 3712 
L 2579 3712 
L 1869 2661 
C 1395 1954 1069 999 1069 165 
C 1069 89 1069 -128 1299 -128 
C 1530 -128 1530 89 1530 171 
L 1530 465 
C 1530 1508 1709 2196 2003 2636 
L 2886 3941 
z
" transform="scale(0.015625)"/>
       </defs>
       <use xlink:href="#CMR17-37" transform="scale(0.996264)"/>
      </g>
     </g>
    </g>
    <g id="xtick_8">
     <g id="line2d_8">
      <g>
       <use xlink:href="#m5bf7d9fec0" x="328.150402" y="392.488647" style="stroke: #000000; stroke-width: 0.8"/>
      </g>
     </g>
     <g id="text_8">
      <!-- $\mathdefault{8}$ -->
      <g transform="translate(325.659734 406.407145) scale(0.1 -0.1)">
       <defs>
        <path id="CMR17-38" d="M 1741 2264 
C 2144 2467 2554 2773 2554 3263 
C 2554 3841 1990 4179 1472 4179 
C 890 4179 378 3759 378 3180 
C 378 3021 416 2747 666 2505 
C 730 2442 998 2251 1171 2130 
C 883 1983 211 1634 211 934 
C 211 279 838 -128 1459 -128 
C 2144 -128 2720 362 2720 1010 
C 2720 1590 2330 1857 2074 2029 
L 1741 2264 
z
M 902 2822 
C 851 2854 595 3051 595 3351 
C 595 3739 998 4032 1459 4032 
C 1965 4032 2336 3676 2336 3262 
C 2336 2669 1670 2331 1638 2331 
C 1632 2331 1626 2331 1574 2370 
L 902 2822 
z
M 2080 1519 
C 2176 1449 2483 1240 2483 851 
C 2483 381 2010 25 1472 25 
C 890 25 448 438 448 940 
C 448 1443 838 1862 1280 2060 
L 2080 1519 
z
" transform="scale(0.015625)"/>
       </defs>
       <use xlink:href="#CMR17-38" transform="scale(0.996264)"/>
      </g>
     </g>
    </g>
    <g id="xtick_9">
     <g id="line2d_9">
      <g>
       <use xlink:href="#m5bf7d9fec0" x="364.68793" y="392.488647" style="stroke: #000000; stroke-width: 0.8"/>
      </g>
     </g>
     <g id="text_9">
      <!-- $\mathdefault{9}$ -->
      <g transform="translate(362.197262 406.407145) scale(0.1 -0.1)">
       <defs>
        <path id="CMR17-39" d="M 2253 1864 
C 2253 464 1670 31 1190 31 
C 1043 31 685 31 538 294 
C 704 268 826 357 826 518 
C 826 692 685 749 595 749 
C 538 749 365 723 365 506 
C 365 71 742 -128 1203 -128 
C 1939 -128 2688 674 2688 2073 
C 2688 3817 1971 4179 1485 4179 
C 851 4179 243 3628 243 2778 
C 243 1991 762 1408 1414 1408 
C 1952 1408 2189 1903 2253 2112 
L 2253 1864 
z
M 1427 1510 
C 1254 1510 1011 1542 813 1922 
C 678 2169 678 2461 678 2771 
C 678 3146 678 3405 858 3684 
C 947 3817 1114 4032 1485 4032 
C 2240 4032 2240 2885 2240 2632 
C 2240 2182 2035 1510 1427 1510 
z
" transform="scale(0.015625)"/>
       </defs>
       <use xlink:href="#CMR17-39" transform="scale(0.996264)"/>
      </g>
     </g>
    </g>
    <g id="text_10">
     <!-- $p_x$ -->
     <g transform="translate(212.458858 419.262822) scale(0.1 -0.1)">
      <defs>
       <path id="CMMI12-70" d="M 275 -789 
C 230 -980 205 -1031 -58 -1031 
C -134 -1031 -198 -1031 -198 -1152 
C -198 -1165 -192 -1216 -122 -1216 
C -38 -1216 51 -1216 134 -1216 
L 410 -1216 
C 544 -1216 870 -1216 1005 -1216 
C 1043 -1216 1120 -1216 1120 -1101 
C 1120 -1031 1075 -1031 966 -1031 
C 672 -1031 653 -987 653 -937 
C 653 -861 941 219 979 364 
C 1050 185 1222 -64 1555 -64 
C 2278 -64 3059 875 3059 1814 
C 3059 2401 2726 2816 2246 2816 
C 1837 2816 1491 2420 1421 2331 
C 1370 2650 1120 2816 864 2816 
C 678 2816 531 2727 410 2484 
C 294 2254 205 1865 205 1839 
C 205 1814 230 1782 275 1782 
C 326 1782 333 1788 371 1935 
C 467 2312 589 2689 845 2689 
C 992 2689 1043 2587 1043 2397 
C 1043 2245 1024 2181 998 2067 
L 275 -789 
z
M 1382 1993 
C 1427 2171 1606 2357 1709 2446 
C 1779 2510 1990 2689 2234 2689 
C 2515 2689 2643 2408 2643 2076 
C 2643 1769 2464 1047 2304 715 
C 2144 370 1850 64 1555 64 
C 1120 64 1050 613 1050 639 
C 1050 658 1062 709 1069 741 
L 1382 1993 
z
" transform="scale(0.015625)"/>
       <path id="CMMI12-78" d="M 3034 2606 
C 2829 2567 2752 2414 2752 2293 
C 2752 2139 2874 2088 2963 2088 
C 3155 2088 3290 2254 3290 2427 
C 3290 2695 2982 2816 2714 2816 
C 2323 2816 2106 2433 2048 2312 
C 1901 2816 1504 2816 1389 2816 
C 736 2816 390 1980 390 1839 
C 390 1814 416 1782 461 1782 
C 512 1782 525 1820 538 1846 
C 755 2555 1184 2689 1370 2689 
C 1658 2689 1715 2420 1715 2267 
C 1715 2127 1677 1980 1600 1673 
L 1382 798 
C 1286 415 1101 64 762 64 
C 730 64 570 64 435 147 
C 666 192 717 383 717 460 
C 717 588 621 664 499 664 
C 346 664 179 530 179 326 
C 179 57 480 -64 755 -64 
C 1062 -64 1280 179 1414 441 
C 1517 64 1837 -64 2074 -64 
C 2726 -64 3072 773 3072 913 
C 3072 945 3046 971 3008 971 
C 2950 971 2944 939 2925 888 
C 2752 326 2381 64 2093 64 
C 1869 64 1747 230 1747 492 
C 1747 632 1773 734 1875 1156 
L 2099 2024 
C 2195 2408 2413 2689 2707 2689 
C 2720 2689 2899 2689 3034 2606 
z
" transform="scale(0.015625)"/>
      </defs>
      <use xlink:href="#CMMI12-70" transform="scale(0.996264)"/>
      <use xlink:href="#CMMI12-78" transform="translate(48.959514 -14.943915) scale(0.697382)"/>
     </g>
    </g>
   </g>
   <g id="matplotlib.axis_2">
    <g id="ytick_1">
     <g id="line2d_10">
      <defs>
       <path id="m4b8af087ee" d="M 0 0 
L -3.5 0 
" style="stroke: #000000; stroke-width: 0.8"/>
      </defs>
      <g>
       <use xlink:href="#m4b8af087ee" x="57.065673" y="362.451081" style="stroke: #000000; stroke-width: 0.8"/>
      </g>
     </g>
     <g id="text_11">
      <!-- $\mathdefault{0}$ -->
      <g transform="translate(45.084338 365.910331) scale(0.1 -0.1)">
       <defs>
        <path id="CMR17-30" d="M 2688 2025 
C 2688 2416 2682 3080 2413 3591 
C 2176 4039 1798 4198 1466 4198 
C 1158 4198 768 4058 525 3597 
C 269 3118 243 2524 243 2025 
C 243 1661 250 1106 448 619 
C 723 -39 1216 -128 1466 -128 
C 1760 -128 2208 -7 2470 600 
C 2662 1042 2688 1559 2688 2025 
z
M 1466 -26 
C 1056 -26 813 325 723 812 
C 653 1188 653 1738 653 2096 
C 653 2588 653 2997 736 3387 
C 858 3929 1216 4096 1466 4096 
C 1728 4096 2067 3923 2189 3400 
C 2272 3036 2278 2607 2278 2096 
C 2278 1680 2278 1169 2202 792 
C 2067 95 1690 -26 1466 -26 
z
" transform="scale(0.015625)"/>
       </defs>
       <use xlink:href="#CMR17-30" transform="scale(0.996264)"/>
      </g>
     </g>
    </g>
    <g id="ytick_2">
     <g id="line2d_11">
      <g>
       <use xlink:href="#m4b8af087ee" x="57.065673" y="289.376025" style="stroke: #000000; stroke-width: 0.8"/>
      </g>
     </g>
     <g id="text_12">
      <!-- $\mathdefault{2}$ -->
      <g transform="translate(45.084338 292.835274) scale(0.1 -0.1)">
       <use xlink:href="#CMR17-32" transform="scale(0.996264)"/>
      </g>
     </g>
    </g>
    <g id="ytick_3">
     <g id="line2d_12">
      <g>
       <use xlink:href="#m4b8af087ee" x="57.065673" y="216.300969" style="stroke: #000000; stroke-width: 0.8"/>
      </g>
     </g>
     <g id="text_13">
      <!-- $\mathdefault{4}$ -->
      <g transform="translate(45.084338 219.760218) scale(0.1 -0.1)">
       <use xlink:href="#CMR17-34" transform="scale(0.996264)"/>
      </g>
     </g>
    </g>
    <g id="ytick_4">
     <g id="line2d_13">
      <g>
       <use xlink:href="#m4b8af087ee" x="57.065673" y="143.225913" style="stroke: #000000; stroke-width: 0.8"/>
      </g>
     </g>
     <g id="text_14">
      <!-- $\mathdefault{6}$ -->
      <g transform="translate(45.084338 146.685162) scale(0.1 -0.1)">
       <use xlink:href="#CMR17-36" transform="scale(0.996264)"/>
      </g>
     </g>
    </g>
    <g id="ytick_5">
     <g id="line2d_14">
      <g>
       <use xlink:href="#m4b8af087ee" x="57.065673" y="70.150857" style="stroke: #000000; stroke-width: 0.8"/>
      </g>
     </g>
     <g id="text_15">
      <!-- $\mathdefault{8}$ -->
      <g transform="translate(45.084338 73.610106) scale(0.1 -0.1)">
       <use xlink:href="#CMR17-38" transform="scale(0.996264)"/>
      </g>
     </g>
    </g>
    <g id="text_16">
     <!-- $p_y$ -->
     <g transform="translate(38.233943 213.321858) rotate(-90) scale(0.1 -0.1)">
      <defs>
       <path id="CMMI12-79" d="M 1683 -700 
C 1510 -939 1261 -1152 947 -1152 
C 870 -1152 563 -1152 467 -889 
C 486 -895 518 -895 531 -895 
C 723 -895 851 -729 851 -582 
C 851 -435 730 -384 634 -384 
C 531 -384 307 -458 307 -759 
C 307 -1071 582 -1286 947 -1286 
C 1587 -1286 2234 -700 2413 6 
L 3040 2485 
C 3046 2517 3059 2556 3059 2594 
C 3059 2689 2982 2753 2886 2753 
C 2829 2753 2694 2727 2643 2535 
L 2170 658 
C 2138 543 2138 530 2086 460 
C 1958 281 1747 64 1440 64 
C 1082 64 1050 415 1050 588 
C 1050 952 1222 1443 1395 1903 
C 1466 2088 1504 2178 1504 2305 
C 1504 2574 1312 2816 998 2816 
C 410 2816 173 1890 173 1839 
C 173 1814 198 1782 243 1782 
C 301 1782 307 1807 333 1897 
C 486 2433 730 2689 979 2689 
C 1037 2689 1146 2689 1146 2478 
C 1146 2312 1075 2127 979 1884 
C 666 1047 666 837 666 683 
C 666 77 1101 -64 1421 -64 
C 1606 -64 1837 -6 2061 230 
L 2067 224 
C 1971 -147 1907 -392 1683 -700 
z
" transform="scale(0.015625)"/>
      </defs>
      <use xlink:href="#CMMI12-70" transform="scale(0.996264)"/>
      <use xlink:href="#CMMI12-79" transform="translate(48.959514 -14.943915) scale(0.697382)"/>
     </g>
    </g>
   </g>
   <g id="line2d_15">
    <path d="M 328.150402 106.688385 
L 326.833858 109.352386 
L 325.67053 112.237952 
L 324.678746 115.34467 
L 323.85724 118.672459 
L 323.211993 122.221136 
L 322.757268 125.99039 
L 322.496659 129.980101 
L 322.424585 134.18993 
L 322.587786 139.761938 
L 323.016223 145.678842 
L 323.835421 153.235029 
L 325.780918 169.840735 
L 326.327714 177.329351 
L 326.562612 183.543101 
L 326.598721 189.942491 
L 326.427944 196.515279 
L 326.047309 203.251279 
L 325.453733 210.143263 
L 324.646094 217.184375 
L 323.62534 224.364956 
L 322.392716 231.670632 
L 320.948679 239.07917 
L 319.288055 246.556397 
L 317.407094 253.982477 
L 315.304844 261.186597 
L 312.981352 268.168833 
L 310.437938 274.92903 
L 307.673321 281.467553 
L 304.68753 287.784491 
L 302.303054 292.376838 
L 299.794184 296.844638 
L 297.16092 301.187934 
L 294.40326 305.406767 
L 291.521197 309.501178 
L 288.514719 313.47121 
L 285.383812 317.3169 
L 282.128457 321.038287 
L 278.74863 324.635406 
L 275.244304 328.108289 
L 271.61545 331.456967 
L 267.862033 334.681467 
L 263.984018 337.781809 
L 259.981366 340.758014 
L 255.855951 343.610099 
L 251.609549 346.33808 
L 245.768968 349.782367 
L 239.736294 353.006088 
L 233.526136 356.00927 
L 227.156928 358.791936 
L 220.650307 361.354102 
L 214.031207 363.69578 
L 207.327613 365.816975 
L 200.560628 367.717929 
L 193.765996 369.398721 
L 186.973867 370.859062 
L 180.207955 372.098973 
L 173.499013 373.118486 
L 166.866482 373.917663 
L 160.328308 374.496585 
L 153.899723 374.856176 
L 147.592401 374.995708 
L 141.413458 374.915315 
L 135.373755 374.615205 
L 129.480545 374.096771 
L 123.739814 373.365232 
L 118.156511 372.427249 
L 112.734719 371.291889 
L 107.47686 369.967169 
L 102.386319 368.472505 
L 97.465711 366.833713 
L 91.556873 364.631867 
L 84.824946 361.846628 
L 78.487434 358.983172 
L 72.546017 356.104112 
L 72.546017 356.104112 
" clip-path="url(#p10d2d57aa6)" style="fill: none; stroke: #1f77b4; stroke-width: 0.8; stroke-linecap: square"/>
   </g>
   <g id="line2d_16">
    <path d="M 335.011734 93.784096 
L 328.23092 106.770765 
L 324.679186 114.108014 
L 321.929853 120.294967 
L 319.631193 125.972243 
L 317.487803 131.845756 
L 315.50725 137.936346 
L 313.683976 144.257918 
L 311.804395 151.659754 
L 310.082605 159.383619 
L 308.317905 168.362859 
L 306.338429 179.7126 
L 300.415763 214.842078 
L 298.642055 223.612093 
L 296.87152 231.404981 
L 294.854274 239.291478 
L 292.898383 246.112098 
L 290.707125 252.975633 
L 288.257036 259.868122 
L 286.001705 265.622662 
L 283.539672 271.376157 
L 280.860318 277.117265 
L 277.954306 282.833467 
L 274.813729 288.511106 
L 271.432326 294.135406 
L 267.805659 299.690559 
L 263.931108 305.160008 
L 259.807966 310.526595 
L 255.437302 315.772907 
L 251.764345 319.871628 
L 247.936812 323.873321 
L 243.95738 327.769224 
L 239.829296 331.550687 
L 235.556332 335.209248 
L 231.142787 338.736697 
L 226.593466 342.125126 
L 221.913667 345.366977 
L 217.10915 348.455081 
L 212.186254 351.382829 
L 207.151932 354.144289 
L 202.013788 356.73437 
L 196.780026 359.148889 
L 191.45934 361.384598 
L 186.060729 363.439084 
L 180.593441 365.310829 
L 180.593441 365.310829 
" clip-path="url(#p10d2d57aa6)" style="fill: none; stroke: #2ca02c; stroke-width: 0.8; stroke-linecap: square"/>
   </g>
   <g id="line2d_17">
    <path d="M 341.873066 80.879807 
L 326.173825 110.624963 
L 320.213346 122.419316 
L 315.738898 131.739198 
L 311.749534 140.552452 
L 308.230771 148.855095 
L 304.883307 157.345392 
L 301.971332 165.312792 
L 298.963943 174.222265 
L 296.12078 183.370716 
L 293.195264 193.559969 
L 289.735828 206.505045 
L 280.734078 240.804855 
L 277.835536 250.691616 
L 275.214918 258.904081 
L 272.654171 266.282563 
L 269.839194 273.718736 
L 267.140233 280.257603 
L 264.197364 286.810494 
L 260.988814 293.359658 
L 258.011589 298.955075 
L 254.812171 304.518996 
L 251.379799 310.036226 
L 247.705086 315.490492 
L 247.705086 315.490492 
" clip-path="url(#p10d2d57aa6)" style="fill: none; stroke: #9467bd; stroke-width: 0.8; stroke-linecap: square"/>
   </g>
   <g id="line2d_18">
    <path d="M 348.734398 67.975518 
L 320.694907 120.945733 
L 312.677802 136.584098 
L 306.50134 149.092219 
L 301.15327 160.422544 
L 296.605429 170.557923 
L 292.239102 180.845909 
L 288.337827 190.602646 
L 284.604549 200.521777 
L 280.777635 211.340942 
L 276.857618 223.109553 
L 272.095558 238.160987 
L 262.784383 267.790113 
L 259.814235 276.597837 
L 259.814235 276.597837 
" clip-path="url(#p10d2d57aa6)" style="fill: none; stroke: #e377c2; stroke-width: 0.8; stroke-linecap: square"/>
   </g>
   <g id="line2d_19">
    <path d="M 355.59573 55.071229 
L 313.491331 134.489741 
L 303.083155 154.634708 
L 295.539261 169.697308 
L 289.160054 182.915347 
L 283.59953 194.934149 
L 278.529281 206.411668 
L 273.649066 218.027631 
L 268.960773 229.794075 
L 264.450998 241.719313 
L 260.08755 253.807706 
L 260.08755 253.807706 
" clip-path="url(#p10d2d57aa6)" style="fill: none; stroke: #bcbd22; stroke-width: 0.8; stroke-linecap: square"/>
   </g>
   <g id="line2d_20">
    <path d="M 362.457063 42.16694 
L 304.573613 151.263086 
L 292.44726 174.6224 
L 283.536533 192.251583 
L 276.13376 207.381766 
L 269.569237 221.314009 
L 263.817492 234.03462 
L 262.335815 237.402144 
L 262.335815 237.402144 
" clip-path="url(#p10d2d57aa6)" style="fill: none; stroke: #9edae5; stroke-width: 0.8; stroke-linecap: square"/>
   </g>
   <g id="patch_190">
    <path d="M 57.065673 392.488647 
L 57.065673 25.10218 
" style="fill: none; stroke: #000000; stroke-width: 0.8; stroke-linejoin: miter; stroke-linecap: square"/>
   </g>
   <g id="patch_191">
    <path d="M 377.382284 392.488647 
L 377.382284 25.10218 
" style="fill: none; stroke: #000000; stroke-width: 0.8; stroke-linejoin: miter; stroke-linecap: square"/>
   </g>
   <g id="patch_192">
    <path d="M 57.065673 392.488647 
L 377.382284 392.488647 
" style="fill: none; stroke: #000000; stroke-width: 0.8; stroke-linejoin: miter; stroke-linecap: square"/>
   </g>
   <g id="patch_193">
    <path d="M 57.065673 25.10218 
L 377.382284 25.10218 
" style="fill: none; stroke: #000000; stroke-width: 0.8; stroke-linejoin: miter; stroke-linecap: square"/>
   </g>
   <g id="text_17">
    <!-- 6-vehicle Dubins platoon reach tube -->
    <g transform="translate(124.764024 19.10218) scale(0.12 -0.12)">
     <defs>
      <path id="CMR17-2d" d="M 1632 1216 
L 1632 1496 
L 26 1496 
L 26 1216 
L 1632 1216 
z
" transform="scale(0.015625)"/>
      <path id="CMR17-76" d="M 2502 2163 
C 2560 2304 2662 2560 3034 2560 
L 3034 2726 
C 2912 2726 2752 2726 2630 2726 
C 2496 2726 2285 2726 2157 2732 
L 2157 2566 
C 2317 2553 2406 2477 2406 2311 
C 2406 2253 2406 2240 2368 2151 
L 1664 377 
L 902 2286 
C 864 2369 864 2381 864 2407 
C 864 2560 1075 2560 1171 2560 
L 1171 2732 
C 1018 2726 736 2726 576 2726 
C 403 2726 205 2726 64 2732 
L 64 2560 
C 307 2560 442 2560 518 2362 
L 1446 44 
C 1485 -51 1491 -64 1549 -64 
C 1606 -64 1613 -51 1651 44 
L 2502 2163 
z
" transform="scale(0.015625)"/>
      <path id="CMR17-65" d="M 2438 1472 
C 2464 1498 2464 1511 2464 1576 
C 2464 2238 2118 2816 1389 2816 
C 710 2816 173 2169 173 1383 
C 173 551 781 -64 1459 -64 
C 2176 -64 2458 607 2458 740 
C 2458 784 2419 784 2406 784 
C 2362 784 2355 771 2330 696 
C 2189 265 1837 51 1504 51 
C 1229 51 954 203 781 480 
C 582 803 582 1176 582 1472 
L 2438 1472 
z
M 589 1568 
C 634 2505 1126 2714 1382 2714 
C 1818 2714 2112 2297 2118 1568 
L 589 1568 
z
" transform="scale(0.015625)"/>
      <path id="CMR17-68" d="M 2656 1933 
C 2656 2259 2592 2790 1837 2790 
C 1312 2790 1056 2368 979 2157 
L 973 2157 
L 973 4396 
L 211 4326 
L 211 4160 
C 589 4160 646 4122 646 3817 
L 646 426 
C 646 184 621 153 211 153 
L 211 -13 
C 365 0 646 0 813 0 
C 979 0 1267 0 1421 -13 
L 1421 153 
C 1011 153 986 178 986 428 
L 986 1658 
C 986 2247 1344 2688 1792 2688 
C 2266 2688 2317 2266 2317 1958 
L 2317 428 
C 2317 184 2291 153 1882 153 
L 1882 -13 
C 2035 0 2317 0 2483 0 
C 2650 0 2938 0 3091 -13 
L 3091 153 
C 2682 153 2656 178 2656 428 
L 2656 1933 
z
" transform="scale(0.015625)"/>
      <path id="CMR17-69" d="M 992 3909 
C 992 4049 877 4170 730 4170 
C 589 4170 467 4056 467 3909 
C 467 3769 582 3648 730 3648 
C 870 3648 992 3763 992 3909 
z
M 243 2706 
L 243 2541 
C 602 2541 653 2502 653 2197 
L 653 427 
C 653 184 627 153 218 153 
L 218 -13 
C 371 0 646 0 806 0 
C 960 0 1222 0 1370 -13 
L 1370 153 
C 992 153 979 191 979 420 
L 979 2776 
L 243 2706 
z
" transform="scale(0.015625)"/>
      <path id="CMR17-63" d="M 2234 2240 
C 2112 2240 1933 2240 1933 2017 
C 1933 1838 2080 1787 2163 1787 
C 2208 1787 2394 1807 2394 2024 
C 2394 2467 1958 2803 1466 2803 
C 787 2803 211 2178 211 1363 
C 211 516 813 -64 1466 -64 
C 2259 -64 2458 677 2458 748 
C 2458 774 2451 793 2406 793 
C 2362 793 2355 787 2330 703 
C 2163 180 1798 51 1523 51 
C 1114 51 621 427 621 1369 
C 621 2338 1094 2688 1472 2688 
C 1722 2688 2093 2573 2234 2240 
z
" transform="scale(0.015625)"/>
      <path id="CMR17-6c" d="M 979 4396 
L 218 4326 
L 218 4160 
C 595 4160 653 4122 653 3817 
L 653 426 
C 653 184 627 153 218 153 
L 218 -13 
C 371 0 653 0 813 0 
C 979 0 1261 0 1414 -13 
L 1414 153 
C 1005 153 979 178 979 426 
L 979 4396 
z
" transform="scale(0.015625)"/>
      <path id="CMR17-44" d="M 333 4352 
L 333 4186 
C 774 4186 845 4186 845 3900 
L 845 452 
C 845 166 774 166 333 166 
L 333 0 
L 2368 0 
C 3398 0 4224 943 4224 2141 
C 4224 3346 3411 4352 2368 4352 
L 333 4352 
z
M 1523 166 
C 1267 166 1254 197 1254 414 
L 1254 3938 
C 1254 4155 1267 4186 1523 4186 
L 2240 4186 
C 2771 4186 3750 3874 3750 2141 
C 3750 1242 3488 879 3366 707 
C 3213 510 2848 166 2240 166 
L 1523 166 
z
" transform="scale(0.015625)"/>
      <path id="CMR17-75" d="M 1882 2693 
L 1882 2528 
C 2259 2528 2317 2489 2317 2186 
L 2317 1032 
C 2317 500 2029 38 1555 38 
C 1030 38 986 348 986 678 
L 986 2763 
L 211 2693 
L 211 2528 
C 467 2528 640 2528 646 2274 
L 646 1058 
C 646 633 646 361 813 183 
C 896 101 1056 -64 1517 -64 
C 2061 -64 2272 377 2323 506 
L 2330 506 
L 2330 -63 
L 3091 -63 
L 3091 128 
C 2714 128 2656 166 2656 473 
L 2656 2763 
L 1882 2693 
z
" transform="scale(0.015625)"/>
      <path id="CMR17-62" d="M 960 4396 
L 198 4326 
L 198 4160 
C 576 4160 634 4122 634 3817 
L 634 -13 
L 749 -13 
L 934 441 
C 1120 141 1395 -64 1766 -64 
C 2406 -64 3053 500 3053 1370 
C 3053 2188 2477 2790 1830 2790 
C 1434 2790 1152 2579 960 2330 
L 960 4396 
z
M 973 2004 
C 973 2118 973 2138 1062 2272 
C 1312 2657 1670 2688 1792 2688 
C 1984 2688 2643 2585 2643 1376 
C 2643 108 1888 38 1734 38 
C 1536 38 1248 114 1043 486 
C 973 608 973 621 973 735 
L 973 2004 
z
" transform="scale(0.015625)"/>
      <path id="CMR17-6e" d="M 2656 1933 
C 2656 2259 2592 2790 1837 2790 
C 1331 2790 1069 2400 973 2144 
L 966 2144 
L 966 2790 
L 211 2720 
L 211 2554 
C 589 2554 646 2515 646 2208 
L 646 428 
C 646 184 621 153 211 153 
L 211 -13 
C 365 0 646 0 813 0 
C 979 0 1267 0 1421 -13 
L 1421 153 
C 1011 153 986 178 986 428 
L 986 1658 
C 986 2247 1344 2688 1792 2688 
C 2266 2688 2317 2266 2317 1958 
L 2317 428 
C 2317 184 2291 153 1882 153 
L 1882 -13 
C 2035 0 2317 0 2483 0 
C 2650 0 2938 0 3091 -13 
L 3091 153 
C 2682 153 2656 178 2656 428 
L 2656 1933 
z
" transform="scale(0.015625)"/>
      <path id="CMR17-73" d="M 1978 2697 
C 1978 2813 1971 2819 1933 2819 
C 1907 2819 1901 2813 1824 2717 
C 1805 2691 1747 2626 1728 2601 
C 1523 2819 1235 2819 1126 2819 
C 416 2819 160 2447 160 2076 
C 160 1498 813 1365 998 1325 
C 1402 1243 1542 1217 1677 1101 
C 1760 1025 1901 884 1901 654 
C 1901 384 1747 38 1158 38 
C 602 38 403 460 288 1021 
C 269 1110 269 1117 218 1117 
C 166 1117 160 1110 160 983 
L 160 63 
C 160 -51 166 -58 205 -58 
C 237 -58 243 -51 275 0 
C 314 57 410 211 448 276 
C 576 103 800 -64 1158 -64 
C 1792 -64 2131 283 2131 784 
C 2131 1112 1958 1285 1875 1362 
C 1683 1561 1459 1606 1190 1657 
C 838 1735 390 1825 390 2217 
C 390 2383 480 2737 1126 2737 
C 1811 2737 1850 2094 1862 1888 
C 1869 1856 1901 1849 1920 1849 
C 1978 1849 1978 1869 1978 1978 
L 1978 2697 
z
" transform="scale(0.015625)"/>
      <path id="CMR17-70" d="M 1408 -1063 
C 998 -1063 973 -1037 973 -789 
L 973 402 
C 1158 134 1427 -38 1766 -38 
C 2406 -38 3053 523 3053 1388 
C 3053 2191 2496 2802 1837 2802 
C 1453 2802 1139 2592 960 2338 
L 960 2802 
L 198 2732 
L 198 2567 
C 576 2567 634 2528 634 2223 
L 634 -789 
C 634 -1031 608 -1063 198 -1063 
L 198 -1228 
C 352 -1216 634 -1216 800 -1216 
C 966 -1216 1254 -1216 1408 -1228 
L 1408 -1063 
z
M 973 2012 
C 973 2102 973 2235 1222 2471 
C 1254 2497 1472 2688 1792 2688 
C 2259 2688 2643 2108 2643 1382 
C 2643 656 2234 64 1728 64 
C 1498 64 1248 172 1056 472 
C 973 612 973 650 973 752 
L 973 2012 
z
" transform="scale(0.015625)"/>
      <path id="CMR17-61" d="M 2304 1653 
C 2304 2072 2304 2294 2035 2543 
C 1798 2752 1523 2816 1306 2816 
C 800 2816 435 2407 435 1971 
C 435 1728 627 1728 666 1728 
C 749 1728 896 1778 896 1954 
C 896 2112 774 2181 666 2181 
C 640 2181 608 2174 589 2168 
C 723 2592 1069 2714 1293 2714 
C 1613 2714 1965 2429 1965 1885 
L 1965 1600 
C 1587 1600 1133 1549 774 1357 
C 371 1133 256 813 256 570 
C 256 77 832 -64 1171 -64 
C 1523 -64 1850 139 1990 511 
C 2003 233 2182 -18 2464 -18 
C 2598 -18 2938 70 2938 567 
L 2938 920 
L 2822 920 
L 2822 562 
C 2822 178 2650 128 2566 128 
C 2304 128 2304 458 2304 738 
L 2304 1653 
z
M 1965 870 
C 1965 317 1568 38 1216 38 
C 896 38 646 275 646 570 
C 646 761 730 1100 1101 1305 
C 1408 1478 1760 1504 1965 1504 
L 1965 870 
z
" transform="scale(0.015625)"/>
      <path id="CMR17-74" d="M 966 2560 
L 1862 2560 
L 1862 2725 
L 966 2725 
L 966 3904 
L 851 3904 
C 838 3245 614 2668 70 2668 
L 70 2560 
L 627 2560 
L 627 771 
C 627 650 627 -64 1370 -64 
C 1747 -64 1965 306 1965 777 
L 1965 1140 
L 1850 1140 
L 1850 783 
C 1850 344 1677 51 1408 51 
C 1222 51 966 178 966 758 
L 966 2560 
z
" transform="scale(0.015625)"/>
      <path id="CMR17-6f" d="M 2758 1356 
C 2758 2176 2163 2816 1466 2816 
C 768 2816 173 2176 173 1356 
C 173 551 768 -64 1466 -64 
C 2163 -64 2758 551 2758 1356 
z
M 1466 51 
C 1165 51 909 230 762 480 
C 602 767 582 1126 582 1408 
C 582 1677 595 2010 762 2298 
C 890 2509 1139 2714 1466 2714 
C 1754 2714 1997 2554 2150 2330 
C 2349 2029 2349 1607 2349 1408 
C 2349 1158 2336 775 2163 467 
C 1984 173 1709 51 1466 51 
z
" transform="scale(0.015625)"/>
      <path id="CMR17-72" d="M 960 1497 
C 960 2112 1222 2688 1702 2688 
C 1747 2688 1792 2682 1837 2662 
C 1837 2662 1696 2617 1696 2452 
C 1696 2298 1818 2234 1914 2234 
C 1990 2234 2131 2279 2131 2458 
C 2131 2663 1926 2790 1709 2790 
C 1222 2790 1011 2317 947 2093 
L 941 2093 
L 941 2790 
L 198 2720 
L 198 2554 
C 576 2554 634 2515 634 2208 
L 634 428 
C 634 184 608 153 198 153 
L 198 -13 
C 352 0 646 0 813 0 
C 998 0 1325 0 1498 -13 
L 1498 153 
C 1037 153 960 153 960 440 
L 960 1497 
z
" transform="scale(0.015625)"/>
     </defs>
     <use xlink:href="#CMR17-36" transform="scale(0.996264)"/>
     <use xlink:href="#CMR17-2d" transform="translate(45.690477 0) scale(0.996264)"/>
     <use xlink:href="#CMR17-76" transform="translate(75.766443 0) scale(0.996264)"/>
     <use xlink:href="#CMR17-65" transform="translate(121.456905 0) scale(0.996264)"/>
     <use xlink:href="#CMR17-68" transform="translate(161.942566 0) scale(0.996264)"/>
     <use xlink:href="#CMR17-69" transform="translate(212.837936 0) scale(0.996264)"/>
     <use xlink:href="#CMR17-63" transform="translate(237.708994 0) scale(0.996264)"/>
     <use xlink:href="#CMR17-6c" transform="translate(278.194655 0) scale(0.996264)"/>
     <use xlink:href="#CMR17-65" transform="translate(303.065713 0) scale(0.996264)"/>
     <use xlink:href="#CMR17-44" transform="translate(373.62734 0) scale(0.996264)"/>
     <use xlink:href="#CMR17-75" transform="translate(444.020896 0) scale(0.996264)"/>
     <use xlink:href="#CMR17-62" transform="translate(494.916266 0) scale(0.996264)"/>
     <use xlink:href="#CMR17-69" transform="translate(545.811635 0) scale(0.996264)"/>
     <use xlink:href="#CMR17-6e" transform="translate(570.682694 0) scale(0.996264)"/>
     <use xlink:href="#CMR17-73" transform="translate(621.578064 0) scale(0.996264)"/>
     <use xlink:href="#CMR17-70" transform="translate(687.455368 0) scale(0.996264)"/>
     <use xlink:href="#CMR17-6c" transform="translate(738.350737 0) scale(0.996264)"/>
     <use xlink:href="#CMR17-61" transform="translate(763.221796 0) scale(0.996264)"/>
     <use xlink:href="#CMR17-74" transform="translate(808.912273 0) scale(0.996264)"/>
     <use xlink:href="#CMR17-6f" transform="translate(844.193041 0) scale(0.996264)"/>
     <use xlink:href="#CMR17-6f" transform="translate(892.485957 0) scale(0.996264)"/>
     <use xlink:href="#CMR17-6e" transform="translate(938.176434 0) scale(0.996264)"/>
     <use xlink:href="#CMR17-72" transform="translate(1019.14777 0) scale(0.996264)"/>
     <use xlink:href="#CMR17-65" transform="translate(1054.428538 0) scale(0.996264)"/>
     <use xlink:href="#CMR17-61" transform="translate(1094.914198 0) scale(0.996264)"/>
     <use xlink:href="#CMR17-63" transform="translate(1140.604675 0) scale(0.996264)"/>
     <use xlink:href="#CMR17-68" transform="translate(1178.487882 0) scale(0.996264)"/>
     <use xlink:href="#CMR17-74" transform="translate(1259.459218 0) scale(0.996264)"/>
     <use xlink:href="#CMR17-75" transform="translate(1294.739986 0) scale(0.996264)"/>
     <use xlink:href="#CMR17-62" transform="translate(1345.635355 0) scale(0.996264)"/>
     <use xlink:href="#CMR17-65" transform="translate(1399.133164 0) scale(0.996264)"/>
    </g>
   </g>
   <g id="legend_1">
    <g id="patch_194">
     <path d="M 63.365673 57.389104 
L 124.474158 57.389104 
Q 126.274158 57.389104 126.274158 55.589104 
L 126.274158 31.40218 
Q 126.274158 29.60218 124.474158 29.60218 
L 63.365673 29.60218 
Q 61.565673 29.60218 61.565673 31.40218 
L 61.565673 55.589104 
Q 61.565673 57.389104 63.365673 57.389104 
z
" style="fill: #ffffff; opacity: 0.8; stroke: #cccccc; stroke-linejoin: miter"/>
    </g>
    <g id="patch_195">
     <path d="M 65.165673 39.50218 
L 83.165673 39.50218 
L 83.165673 33.20218 
L 65.165673 33.20218 
z
" style="fill: #fa8072"/>
    </g>
    <g id="text_18">
     <!-- obstacle -->
     <g transform="translate(90.365673 39.50218) scale(0.09 -0.09)">
      <use xlink:href="#CMR17-6f" transform="scale(0.996264)"/>
      <use xlink:href="#CMR17-62" transform="translate(45.690477 0) scale(0.996264)"/>
      <use xlink:href="#CMR17-73" transform="translate(96.585847 0) scale(0.996264)"/>
      <use xlink:href="#CMR17-74" transform="translate(132.387185 0) scale(0.996264)"/>
      <use xlink:href="#CMR17-61" transform="translate(167.667952 0) scale(0.996264)"/>
      <use xlink:href="#CMR17-63" transform="translate(213.358429 0) scale(0.996264)"/>
      <use xlink:href="#CMR17-6c" transform="translate(253.84409 0) scale(0.996264)"/>
      <use xlink:href="#CMR17-65" transform="translate(278.715148 0) scale(0.996264)"/>
     </g>
    </g>
    <g id="line2d_21">
     <path d="M 65.165673 48.895642 
L 74.165673 48.895642 
L 83.165673 48.895642 
" style="fill: none; stroke: #1f77b4; stroke-width: 0.8; stroke-linecap: square"/>
    </g>
    <g id="text_19">
     <!-- leader -->
     <g transform="translate(90.365673 52.045642) scale(0.09 -0.09)">
      <defs>
       <path id="CMR17-64" d="M 1869 4326 
L 1869 4160 
C 2246 4160 2304 4122 2304 3820 
L 2304 2345 
C 2278 2377 2016 2790 1498 2790 
C 845 2790 211 2208 211 1364 
C 211 525 806 -64 1434 -64 
C 1978 -64 2259 337 2291 380 
L 2291 -63 
L 3066 -63 
L 3066 128 
C 2688 128 2630 166 2630 473 
L 2630 4396 
L 1869 4326 
z
M 2291 755 
C 2291 563 2176 390 2029 262 
C 1811 70 1594 38 1472 38 
C 1286 38 621 134 621 1356 
C 621 2612 1363 2688 1530 2688 
C 1824 2688 2061 2522 2208 2291 
C 2291 2157 2291 2138 2291 2023 
L 2291 755 
z
" transform="scale(0.015625)"/>
      </defs>
      <use xlink:href="#CMR17-6c" transform="scale(0.996264)"/>
      <use xlink:href="#CMR17-65" transform="translate(24.871058 0) scale(0.996264)"/>
      <use xlink:href="#CMR17-61" transform="translate(65.356719 0) scale(0.996264)"/>
      <use xlink:href="#CMR17-64" transform="translate(111.047196 0) scale(0.996264)"/>
      <use xlink:href="#CMR17-65" transform="translate(161.942566 0) scale(0.996264)"/>
      <use xlink:href="#CMR17-72" transform="translate(202.428226 0) scale(0.996264)"/>
     </g>
    </g>
   </g>
  </g>
 </g>
 <defs>
  <clipPath id="p10d2d57aa6">
   <rect x="57.065673" y="25.10218" width="320.316611" height="367.386467"/>
  </clipPath>
 </defs>
</svg>
